<?xml version="1.0" encoding="UTF-8"?>
<svg width="131px" height="57px" viewBox="0 0 131 57" version="1.1" xmlns="http://www.w3.org/2000/svg" xmlns:xlink="http://www.w3.org/1999/xlink">
    <title>Group 7</title>
    <defs>
        <linearGradient x1="50%" y1="90.7019413%" x2="50%" y2="0%" id="linearGradient-1">
            <stop stop-color="#EBECF4" offset="0%"></stop>
            <stop stop-color="#D9DAE3" offset="100%"></stop>
        </linearGradient>
        <rect id="path-2" x="2.73929138" y="4.43564356" width="28.9259378" height="43.4752646" rx="0.972"></rect>
        <linearGradient x1="50%" y1="90.7019413%" x2="50%" y2="0%" id="linearGradient-4">
            <stop stop-color="#EBECF4" offset="0%"></stop>
            <stop stop-color="#D9DAE3" offset="100%"></stop>
        </linearGradient>
        <linearGradient x1="50%" y1="90.7019413%" x2="50%" y2="0%" id="linearGradient-5">
            <stop stop-color="#EEEFF1" offset="0%"></stop>
            <stop stop-color="#D8DADE" offset="100%"></stop>
        </linearGradient>
        <path d="M12.2222222,9.77777778 L12.2222222,1.22222222 C12.2222222,0.547555556 11.6746667,0 11,0 C10.3247222,0 9.77777778,0.547555556 9.77777778,1.22222222 L9.77777778,9.77777778 L1.22222222,9.77777778 C0.547555556,9.77777778 0,10.3253333 0,11 C0,11.6752778 0.547555556,12.2222222 1.22222222,12.2222222 L9.77777778,12.2222222 L9.77777778,20.7777778 C9.77777778,21.4530556 10.3247222,22 11,22 C11.6746667,22 12.2222222,21.4530556 12.2222222,20.7777778 L12.2222222,12.2222222 L20.7777778,12.2222222 C21.4524444,12.2222222 22,11.6752778 22,11 C22,10.3253333 21.4524444,9.77777778 20.7777778,9.77777778 L12.2222222,9.77777778 Z" id="path-6"></path>
        <filter x="-39.5%" y="-30.5%" width="179.1%" height="179.1%" filterUnits="objectBoundingBox" id="filter-7">
            <feMorphology radius="3.2" operator="dilate" in="SourceAlpha" result="shadowSpreadOuter1"></feMorphology>
            <feOffset dx="0" dy="2" in="shadowSpreadOuter1" result="shadowOffsetOuter1"></feOffset>
            <feGaussianBlur stdDeviation="1.5" in="shadowOffsetOuter1" result="shadowBlurOuter1"></feGaussianBlur>
            <feComposite in="shadowBlurOuter1" in2="SourceAlpha" operator="out" result="shadowBlurOuter1"></feComposite>
            <feColorMatrix values="0 0 0 0 0   0 0 0 0 0   0 0 0 0 0  0 0 0 0.15 0" type="matrix" in="shadowBlurOuter1"></feColorMatrix>
        </filter>
        <linearGradient x1="0%" y1="100%" x2="100%" y2="0%" id="linearGradient-8">
            <stop stop-color="#7282FB" offset="0%"></stop>
            <stop stop-color="#755BF9" offset="68.7141263%"></stop>
            <stop stop-color="#7934F7" offset="100%"></stop>
        </linearGradient>
    </defs>
    <g id="with-Disclaimer" stroke="none" stroke-width="1" fill="none" fill-rule="evenodd">
        <g id="comm-channel-00-copy" transform="translate(-95.000000, -172.000000)">
            <g id="Group-7" transform="translate(95.000000, 173.000000)">
                <g id="Group-3">
                    <g id="Group-9" transform="translate(58.531351, 0.000000)">
                        <path d="M1,26.2148458 C1,26.9984523 1.46147615,27.7124673 2.24671467,28.1631558 C2.16705671,28.3237518 2.08010801,28.5572533 1.94509451,28.7520078 C1.72907292,29.0650427 1.84815482,29.2503653 2.39333929,29.1160253 C2.43924392,29.1032797 3.16021602,28.912094 3.56525653,28.6589641 C5.57344734,28.7606749 6.94059406,27.5396354 6.94059406,26.2148458 C6.94059406,24.8910758 5.60828083,23.8138079 3.96975698,23.8138079 C2.33231323,23.8138079 1,24.8910758 1,26.2148458 Z" id="Fill-17" transform="translate(3.970297, 26.487075) scale(-1, 1) rotate(-1.000000) translate(-3.970297, -26.487075) "></path>
                        <path d="M61.239303,22.7623762 L59.160095,23.541362 L59.160095,24.5800097 C59.1608652,25.8995756 59.9939057,27.0754283 61.239303,27.5148515 C62.4847002,27.0754283 63.3177407,25.8995756 63.3185109,24.5800097 L63.3185109,23.541362 L61.239303,22.7623762 Z" id="Path-Copy-5" stroke="#DFE2E8" stroke-width="1.0608"></path>
                        <path d="M18.6551445,0 L16.8729663,0.681612536 L16.8729663,1.59042925 C16.8736264,2.74504943 17.5876612,3.77392058 18.6551445,4.15841584 C19.7226279,3.77392058 20.4366626,2.74504943 20.4373228,1.59042925 L20.4373228,0.681612536 L18.6551445,0 Z" id="Path-Copy-7" stroke="#DFE2E8" stroke-width="0.884"></path>
                        <circle id="Oval-2-Copy-2" stroke="#E0E4E9" transform="translate(65.932640, 32.505218) scale(-1, 1) rotate(-37.000000) translate(-65.932640, -32.505218) " cx="65.9326399" cy="32.5052181" r="1.09405941"></circle>
                        <path d="M65.0599012,47.9188771 C67.3972505,50.2915761 68.1826039,50.297877 70.5551093,47.9602643 C68.1826039,50.297877 68.1771222,51.0841374 70.5135654,53.4541175 C68.1771222,51.0841374 67.3904094,51.0760239 65.0192635,53.4149961 C67.3904094,51.0755708 67.3972505,50.2915761 65.0599012,47.9188771 Z" id="Path-Copy-15" fill="#DFE2E8" transform="translate(67.787186, 50.686497) rotate(-315.000000) translate(-67.787186, -50.686497) "></path>
                        <path d="M61.239303,22.7623762 L59.160095,23.541362 L59.160095,24.5800097 C59.1608652,25.8995756 59.9939057,27.0754283 61.239303,27.5148515 C62.4847002,27.0754283 63.3177407,25.8995756 63.3185109,24.5800097 L63.3185109,23.541362 L61.239303,22.7623762 Z" id="Path-Copy-5" stroke="#DFE2E8" stroke-width="1.0608"></path>
                        <path d="M59.2508271,46.3085539 C59.4476811,46.3085539 59.6072628,46.4617098 59.6072628,46.6633491 L59.6066489,47.7335539 L60.5373969,47.7342965 C60.7502879,47.7342965 60.9318276,47.8707445 61.0019988,48.0618528 L61.0096489,48.0905539 L61.001875,48.1197836 C60.931456,48.310978 60.7494518,48.4471678 60.5373969,48.4471678 L59.6066489,48.4465539 L59.6072628,49.5181152 C59.6072628,49.6895696 59.4806753,49.8326188 59.3210084,49.8657022 L59.2508271,49.8729103 C59.0539732,49.8729103 58.8943915,49.7197544 58.8943915,49.5181152 L58.8936489,48.4465539 L57.9642574,48.4471678 C57.7513664,48.4471678 57.5698266,48.3107197 57.4996554,48.1196114 L57.4916489,48.0915539 L57.4997793,48.0616806 C57.5701982,47.8704863 57.7522025,47.7342965 57.9642574,47.7342965 L58.8936489,47.7335539 L58.8943915,46.6633491 C58.8943915,46.4918946 59.020979,46.3488454 59.1806459,46.3157621 L59.2508271,46.3085539 Z" id="Combined-Shape-Copy-6" fill="#DFE2E8" transform="translate(59.250827, 48.090732) rotate(39.000000) translate(-59.250827, -48.090732) "></path>
                        <path d="M45.0599012,2.91887709 C47.3972505,5.29157615 48.1826039,5.29787702 50.5551093,2.9602643 C48.1826039,5.29787702 48.1771222,6.08413743 50.5135654,8.45411749 C48.1771222,6.08413743 47.3904094,6.07602393 45.0192635,8.41499611 C47.3904094,6.07557075 47.3972505,5.29157615 45.0599012,2.91887709 Z" id="Path-Copy-15" fill="#DFE2E8" transform="translate(47.787186, 5.686497) rotate(-315.000000) translate(-47.787186, -5.686497) "></path>
                        <path d="M39.2508271,1.3085539 C39.4476811,1.3085539 39.6072628,1.46170984 39.6072628,1.66334907 L39.6066489,2.7335539 L40.5373969,2.73429647 C40.7502879,2.73429647 40.9318276,2.87074449 41.0019988,3.0618528 L41.0096489,3.0905539 L41.001875,3.11978358 C40.931456,3.31097797 40.7494518,3.44716776 40.5373969,3.44716776 L39.6066489,3.4465539 L39.6072628,4.51811516 C39.6072628,4.68956963 39.4806753,4.83261883 39.3210084,4.86570215 L39.2508271,4.87291033 C39.0539732,4.87291033 38.8943915,4.71975439 38.8943915,4.51811516 L38.8936489,3.4465539 L37.9642574,3.44716776 C37.7513664,3.44716776 37.5698266,3.31071974 37.4996554,3.11961143 L37.4916489,3.0915539 L37.4997793,3.06168065 C37.5701982,2.87048626 37.7522025,2.73429647 37.9642574,2.73429647 L38.8936489,2.7335539 L38.8943915,1.66334907 C38.8943915,1.4918946 39.020979,1.3488454 39.1806459,1.31576207 L39.2508271,1.3085539 Z" id="Combined-Shape-Copy-6" fill="#DFE2E8" transform="translate(39.250827, 3.090732) rotate(39.000000) translate(-39.250827, -3.090732) "></path>
                        <path d="M13.6152431,5.95019755 C13.7792881,5.95019755 13.9122728,6.0778275 13.9122728,6.2458602 L13.9120946,7.13819755 L14.6099075,7.13831637 C14.7904987,7.13831637 14.9482946,7.23363596 15.0334261,7.38215081 L15.0560946,7.43119755 L15.0304312,7.48412237 C14.9423048,7.63263723 14.7815141,7.73237577 14.6099075,7.73237577 L13.9120946,7.73219755 L13.9122728,8.62483194 C13.9122728,8.76479477 13.8110449,8.88204285 13.6818387,8.91268592 L13.6152431,8.92049458 C13.4511981,8.92049458 13.3182134,8.79286463 13.3182134,8.62483194 L13.3180946,7.73219755 L12.6205787,7.73237577 C12.4399874,7.73237577 12.2821916,7.63705618 12.19706,7.48854133 L12.1740946,7.43919755 L12.2000549,7.38656976 C12.2881813,7.23805491 12.4489721,7.13831637 12.6205787,7.13831637 L13.3180946,7.13819755 L13.3182134,6.2458602 C13.3182134,6.10589737 13.4194412,5.98864928 13.5486475,5.95800621 L13.6152431,5.95019755 Z" id="Combined-Shape-Copy-7" fill="#DFE2E8" transform="translate(13.615243, 7.435346) rotate(39.000000) translate(-13.615243, -7.435346) "></path>
                        <circle id="Oval-2-Copy-2" stroke="#E0E4E9" transform="translate(65.932640, 32.505218) scale(-1, 1) rotate(-37.000000) translate(-65.932640, -32.505218) " cx="65.9326399" cy="32.5052181" r="1.09405941"></circle>
                    </g>
                    <g id="Group-6" transform="translate(-0.000000, 12.000000)">
                        <path d="M9.50376652,35.6020454 C11.8411159,37.9747445 12.6264693,37.9810453 14.9989746,35.6434326 C12.6264693,37.9810453 12.6209876,38.7673058 14.9574307,41.1372858 C12.6209876,38.7673058 11.8342747,38.7591922 9.46312885,41.0981644 C11.8342748,38.7587391 11.8411159,37.9747445 9.50376652,35.6020454 Z" id="Path-Copy-16" fill="#DFE2E8" transform="translate(12.231052, 38.369666) rotate(-315.000000) translate(-12.231052, -38.369666) "></path>
                        <path d="M12.1782178,10.0990099 L10.0990099,10.8779957 L10.0990099,11.9166433 C10.09978,13.2362092 10.9328206,14.412062 12.1782178,14.8514851 C13.423615,14.412062 14.2566556,13.2362092 14.2574257,11.9166433 L14.2574257,10.8779957 L12.1782178,10.0990099 Z" id="Path-Copy-6" stroke="#DFE2E8" stroke-width="1.0608"></path>
                        <path d="M8.31683168,26.7326733 C8.51368565,26.7326733 8.67326733,26.8858292 8.67326733,27.0874684 L8.67265347,28.1576733 L9.60340141,28.1584158 C9.81629242,28.1584158 9.99783218,28.2948639 10.0680034,28.4859722 L10.0756535,28.5146733 L10.0678795,28.543903 C9.99746058,28.7350973 9.81545632,28.8712871 9.60340141,28.8712871 L8.67265347,28.8706733 L8.67326733,29.9422345 C8.67326733,30.113689 8.54667981,30.2567382 8.38701297,30.2898215 L8.31683168,30.2970297 C8.11997771,30.2970297 7.96039604,30.1438738 7.96039604,29.9422345 L7.95965347,28.8706733 L7.03026196,28.8712871 C6.81737095,28.8712871 6.63583119,28.7348391 6.56565998,28.5437308 L6.55765347,28.5156733 L6.56578385,28.4858 C6.63620278,28.2946056 6.81820704,28.1584158 7.03026196,28.1584158 L7.95965347,28.1576733 L7.96039604,27.0874684 C7.96039604,26.916014 8.08698356,26.7729648 8.24665039,26.7398814 L8.31683168,26.7326733 Z" id="Combined-Shape-Copy-10" fill="#DFE2E8" transform="translate(8.316832, 28.514851) rotate(39.000000) translate(-8.316832, -28.514851) "></path>
                        <path d="M13.9699995,1.17851532 C14.1340445,1.17851532 14.2670292,1.30614527 14.2670292,1.47417796 L14.266851,2.36651532 L14.9646639,2.36663413 C15.1452552,2.36663413 15.303051,2.46195372 15.3881826,2.61046857 L15.410851,2.65951532 L15.3851877,2.71244014 C15.2970613,2.86095499 15.1362705,2.96069354 14.9646639,2.96069354 L14.266851,2.96051532 L14.2670292,3.8531497 C14.2670292,3.99311253 14.1658014,4.11036062 14.0365951,4.14100369 L13.9699995,4.14881235 C13.8059546,4.14881235 13.6729698,4.0211824 13.6729698,3.8531497 L13.672851,2.96051532 L12.9753352,2.96069354 C12.7947439,2.96069354 12.636948,2.86537395 12.5518165,2.71685909 L12.528851,2.66751532 L12.5548114,2.61488753 C12.6429378,2.46637268 12.8037286,2.36663413 12.9753352,2.36663413 L13.672851,2.36651532 L13.6729698,1.47417796 C13.6729698,1.33421513 13.7741977,1.21696705 13.903404,1.18632398 L13.9699995,1.17851532 Z" id="Combined-Shape-Copy-8" fill="#DFE2E8" transform="translate(13.970000, 2.663664) rotate(39.000000) translate(-13.970000, -2.663664) "></path>
                        <path d="M2.08881141,8.92049458 C2.25285639,8.92049458 2.38584112,9.04812453 2.38584112,9.21615723 L2.3856629,10.1084946 L3.08347579,10.1086134 C3.26406706,10.1086134 3.42186292,10.203933 3.50699447,10.3524478 L3.5296629,10.4014946 L3.50399958,10.4544194 C3.41587315,10.6029343 3.2550824,10.7026728 3.08347579,10.7026728 L2.3856629,10.7024946 L2.38584112,11.595129 C2.38584112,11.7350918 2.28461328,11.8523399 2.15540698,11.882983 L2.08881141,11.8907916 C1.92476644,11.8907916 1.79178171,11.7631617 1.79178171,11.595129 L1.7916629,10.7024946 L1.09414704,10.7026728 C0.913555768,10.7026728 0.755759907,10.6073532 0.670628364,10.4588384 L0.6476629,10.4094946 L0.673623252,10.3568668 C0.761749683,10.2083519 0.922540432,10.1086134 1.09414704,10.1086134 L1.7916629,10.1084946 L1.79178171,9.21615723 C1.79178171,9.0761944 1.89300955,8.95894631 2.02221585,8.92830324 L2.08881141,8.92049458 Z" id="Combined-Shape-Copy-9" fill="#DFE2E8" transform="translate(2.088811, 10.405643) rotate(39.000000) translate(-2.088811, -10.405643) "></path>
                        <circle id="Oval-2-Copy-3" stroke="#E0E4E9" transform="translate(16.633663, 21.624030) scale(-1, 1) rotate(-37.000000) translate(-16.633663, -21.624030) " cx="16.6336634" cy="21.62403" r="1.09405941"></circle>
                    </g>
                    <g id="Group-5" transform="translate(27.000000, 0.000000)">
                        <g id="Group-21-Copy-2">
                            <g id="Group-20">
                                <rect id="phone" fill="url(#linearGradient-1)" x="-1.13686838e-13" y="0" width="33.5540878" height="56" rx="2.088"></rect>
                                <mask id="mask-3" fill="white">
                                    <use xlink:href="#path-2"></use>
                                </mask>
                                <use id="screen-copy" fill="#FFFFFF" xlink:href="#path-2"></use>
                            </g>
                            <rect id="ear" fill="#D8DADE" x="14.2443152" y="1.66336634" width="5.32237255" height="1.17647059" rx="0.588235294"></rect>
                            <ellipse id="home" fill="#FFFFFF" opacity="0.747551306" cx="17.2207952" cy="51.8170738" rx="2.42862171" ry="2.47053919"></ellipse>
                        </g>
                        <g id="Group-4" transform="translate(24.000000, 10.000000)">
                            <g id="Group-2">
                                <rect id="Rectangle" stroke="#FFFFFF" stroke-width="2" fill="#FFFFFF" x="-1" y="-1" width="59.8" height="44" rx="4"></rect>
                                <g id="Group-26-Copy">
                                    <g id="envelope-back" fill="#D9DAE3">
                                        <path d="M53.9643866,3.55271368e-15 C56.0680394,-1.26469904e-16 57.773387,1.70534754 57.773387,3.80900034 L57.773387,18.4206402 C57.773387,20.0982884 56.6887945,21.5226165 55.1825434,22.0306907 L55.1828615,6.33464113 C55.1828615,5.28281473 54.3301877,4.43014096 53.2783613,4.43014096 L53.2783613,4.43014096 L5.09131336,4.43014096 C4.03948696,4.43014096 3.18681319,5.28281473 3.18681319,6.33464113 L3.18681319,6.33464113 L3.18652416,22.1790279 C1.37897284,21.8819046 5.07683321e-14,20.3123106 4.97379915e-14,18.4206402 L4.97379915e-14,3.80900034 C4.90362791e-14,1.70534754 1.70534754,3.49505922e-15 3.80900034,3.55271368e-15 L53.9643866,3.55271368e-15 Z" id="Combined-Shape"></path>
                                    </g>
                                    <g id="envelope-front" transform="translate(0.000000, 13.504755)">
                                        <path d="M28.634217,13.021377 L28.8866935,28.8032701 L3.80900034,28.8032701 C1.70534754,28.8032701 1.14580159e-15,27.0979225 0,24.9942697 L0,1.76902694 C3.15277626e-16,0.71720054 0.852673771,-0.135473231 1.90450017,-0.135473231 C2.20049834,-0.135473231 2.49242217,-0.0664794054 2.75710226,0.0660323452 L28.634217,13.021377 L28.634217,13.021377 Z" id="Triangle-2" fill="url(#linearGradient-4)"></path>
                                        <path d="M57.5209105,13.021377 L57.773387,28.8032701 L32.6956938,28.8032701 C30.592041,28.8032701 28.8866935,27.0979225 28.8866935,24.9942697 L28.8866935,1.76902694 C28.8866935,0.71720054 29.7393673,-0.135473231 30.7911937,-0.135473231 C31.0871918,-0.135473231 31.3791157,-0.0664794054 31.6437957,0.0660323452 L57.5209105,13.021377 L57.5209105,13.021377 Z" id="Triangle-2-Copy" fill="url(#linearGradient-4)" transform="translate(43.330040, 14.415796) scale(-1, 1) translate(-43.330040, -14.415796) "></path>
                                        <path d="M55.606885,28.0861849 L2.16650201,28.0861849 L26.5991528,13.6482002 C27.9998919,12.8204615 29.773495,12.8204615 31.1742342,13.6482002 L55.606885,28.0861849 Z" id="Triangle" fill="url(#linearGradient-5)"></path>
                                    </g>
                                </g>
                            </g>
                        </g>
                    </g>
                </g>
                <g id="Group" transform="translate(70.000000, 24.000000)">
                    <g id="New-Copy">
                        <use fill="black" fill-opacity="1" filter="url(#filter-7)" xlink:href="#path-6"></use>
                        <path stroke="#FFFFFF" stroke-width="3.2" d="M11,-1.6 C10.2205118,-1.6 9.51507477,-1.28404566 9.00443905,-0.773409945 C8.49359599,-0.26256688 8.17777778,0.443138316 8.17777778,1.22222222 L8.17777778,8.17777778 L1.22222222,8.17777778 C0.443288889,8.17777778 -0.262393777,8.49365208 -0.773259739,9.00451804 C-1.2841257,9.515384 -1.6,10.2210667 -1.6,11 C-1.6,11.7794882 -1.28404566,12.4849252 -0.773409945,12.9955609 C-0.26256688,13.506404 0.443138316,13.8222222 1.22222222,13.8222222 L8.17777778,13.8222222 L8.17777778,20.7777778 C8.17777778,21.5574167 8.49367608,22.2628761 9.00428887,22.7734889 C9.51490166,23.2841017 10.2203611,23.6 11,23.6 C11.7790839,23.6 12.4847891,23.2841818 12.9956322,22.7733387 C13.5062679,22.262703 13.8222222,21.5572659 13.8222222,20.7777778 L13.8222222,13.8222222 L20.7777778,13.8222222 C21.5568617,13.8222222 22.2625669,13.506404 22.7734099,12.9955609 C23.2840457,12.4849252 23.6,11.7794882 23.6,11 C23.6,10.2210667 23.2841257,9.515384 22.7732597,9.00451804 C22.2623938,8.49365208 21.5567111,8.17777778 20.7777778,8.17777778 L13.8222222,8.17777778 L13.8222222,1.22222222 C13.8222222,0.443288889 13.5063479,-0.262393777 12.995482,-0.773259739 C12.484616,-1.2841257 11.7789333,-1.6 11,-1.6 Z" fill="#FFFFFF" fill-rule="evenodd"></path>
                    </g>
                    <path d="M12.2222222,9.77777778 L12.2222222,1.22222222 C12.2222222,0.547555556 11.6746667,0 11,0 C10.3247222,0 9.77777778,0.547555556 9.77777778,1.22222222 L9.77777778,9.77777778 L1.22222222,9.77777778 C0.547555556,9.77777778 0,10.3253333 0,11 C0,11.6752778 0.547555556,12.2222222 1.22222222,12.2222222 L9.77777778,12.2222222 L9.77777778,20.7777778 C9.77777778,21.4530556 10.3247222,22 11,22 C11.6746667,22 12.2222222,21.4530556 12.2222222,20.7777778 L12.2222222,12.2222222 L20.7777778,12.2222222 C21.4524444,12.2222222 22,11.6752778 22,11 C22,10.3253333 21.4524444,9.77777778 20.7777778,9.77777778 L12.2222222,9.77777778 Z" id="New" fill="url(#linearGradient-8)"></path>
                </g>
            </g>
        </g>
    </g>
</svg>