<?xml version="1.0" encoding="UTF-8"?>
<svg width="16px" height="13px" viewBox="0 0 16 13" version="1.1" xmlns="http://www.w3.org/2000/svg" xmlns:xlink="http://www.w3.org/1999/xlink">
    <defs>
        <linearGradient x1="100%" y1="16.9921875%" x2="3.74939946e-31%" y2="83.0078125%" id="linearGradient-1">
            <stop stop-color="#7764F9" offset="0%"></stop>
            <stop stop-color="#769FFC" offset="100%"></stop>
        </linearGradient>
    </defs>
    <g id="Account-Access" stroke="none" stroke-width="1" fill="none" fill-rule="evenodd">
        <g id="User-Name-Copy-9" transform="translate(-312.000000, -112.000000)" fill="url(#linearGradient-1)">
            <path d="M324.363636,120.666667 L323.636364,120.666667 C323.234182,120.666667 322.909091,120.9895 322.909091,121.388889 C322.909091,121.788278 323.234182,122.111111 323.636364,122.111111 L324.363636,122.111111 C324.765818,122.111111 325.090909,121.788278 325.090909,121.388889 C325.090909,120.9895 324.765818,120.666667 324.363636,120.666667 L324.363636,120.666667 Z M322.909091,119.222222 L324.363636,119.222222 C324.765818,119.222222 325.090909,118.899389 325.090909,118.5 C325.090909,118.100611 324.765818,117.777778 324.363636,117.777778 L322.909091,117.777778 C322.506909,117.777778 322.181818,118.100611 322.181818,118.5 C322.181818,118.899389 322.506909,119.222222 322.909091,119.222222 L322.909091,119.222222 Z M322.909091,116.333333 L324.363636,116.333333 C324.765818,116.333333 325.090909,116.0105 325.090909,115.611111 C325.090909,115.211722 324.765818,114.888889 324.363636,114.888889 L322.909091,114.888889 C322.506909,114.888889 322.181818,115.211722 322.181818,115.611111 C322.181818,116.0105 322.506909,116.333333 322.909091,116.333333 L322.909091,116.333333 Z M326.545455,123.555556 L322.909091,123.555556 C322.437818,121.907444 320.861818,120.666667 318.144,120.666667 C315.426182,120.666667 313.925818,121.907444 313.454545,123.555556 L313.454545,113.444444 L326.545455,113.444444 L326.545455,123.555556 Z M315.131636,123.555556 C315.632,122.715611 316.399273,122.111111 318.144,122.111111 C319.888727,122.111111 320.730909,122.715611 321.231273,123.555556 L315.131636,123.555556 Z M327.272727,112 L312.727273,112 C312.325091,112 312,112.322833 312,112.722222 L312,124.277778 C312,124.676444 312.325091,125 312.727273,125 L327.272727,125 C327.674182,125 328,124.676444 328,124.277778 L328,112.722222 C328,112.322833 327.674182,112 327.272727,112 L327.272727,112 Z M318.181818,116.333333 C318.784,116.333333 319.272727,116.818667 319.272727,117.416667 C319.272727,118.014667 318.784,118.5 318.181818,118.5 C317.579636,118.5 317.090909,118.014667 317.090909,117.416667 C317.090909,116.818667 317.579636,116.333333 318.181818,116.333333 L318.181818,116.333333 Z M318.181818,119.944444 C319.587636,119.944444 320.727273,118.812722 320.727273,117.416667 C320.727273,116.019889 319.587636,114.888889 318.181818,114.888889 C316.775273,114.888889 315.636364,116.019889 315.636364,117.416667 C315.636364,118.812722 316.775273,119.944444 318.181818,119.944444 L318.181818,119.944444 Z" id="Contact-Card_Yahoo"></path>
        </g>
    </g>
</svg>