<?xml version="1.0" encoding="UTF-8"?>
<svg width="48px" height="51px" viewBox="0 0 48 51" version="1.1" xmlns="http://www.w3.org/2000/svg" xmlns:xlink="http://www.w3.org/1999/xlink">
    <!-- Generator: Sketch 57.1 (83088) - https://sketch.com -->
    <title>call custom care</title>
    <desc>Created with Sketch.</desc>
    <defs>
        <filter x="-21.6%" y="-18.2%" width="143.2%" height="136.4%" filterUnits="objectBoundingBox" id="filter-1">
            <feOffset dx="0" dy="2" in="SourceAlpha" result="shadowOffsetOuter1"></feOffset>
            <feGaussianBlur stdDeviation="1" in="shadowOffsetOuter1" result="shadowBlurOuter1"></feGaussianBlur>
            <feColorMatrix values="0 0 0 0 0   0 0 0 0 0   0 0 0 0 0  0 0 0 0.15 0" type="matrix" in="shadowBlurOuter1" result="shadowMatrixOuter1"></feColorMatrix>
            <feMerge>
                <feMergeNode in="shadowMatrixOuter1"></feMergeNode>
                <feMergeNode in="SourceGraphic"></feMergeNode>
            </feMerge>
        </filter>
        <linearGradient x1="15.5632067%" y1="100%" x2="84.4367933%" y2="0%" id="linearGradient-2">
            <stop stop-color="#7282FB" offset="0%"></stop>
            <stop stop-color="#755BF9" offset="68.7141263%"></stop>
            <stop stop-color="#7934F7" offset="100%"></stop>
        </linearGradient>
    </defs>
    <g id="call-custom-care" stroke="none" stroke-width="1" fill="none" fill-rule="evenodd">
        <g id="Master_icon_grid-working-file--copy-91-Copy-Copy" filter="url(#filter-1)" transform="translate(6.000000, 2.000000)" fill="#FFFFFF" fill-rule="nonzero">
            <path d="M18.07,0 C18.07,0 0.07,5.1 0.07,6 L0.07,24.2 C0.07,33.4 13.37,41.5 17.07,43.7 C17.6769295,44.099123 18.4630705,44.099123 19.07,43.7 C22.87,41.6 36.07,33.4 36.07,24.2 L36.07,6 C36.07,5.1 18.07,0 18.07,0 Z" id="Shape"></path>
        </g>
        <g id="Master_icon_grid-working-file--copy-92" transform="translate(10.000000, 7.000000)" fill="url(#linearGradient-2)" fill-rule="nonzero">
            <path d="M14.257027,0 C14.257027,0 0.148918919,3.94090909 0.148918919,4.63636364 L0.148918919,18.7 C0.148918919,25.8090909 10.5732432,32.0681818 13.4732432,33.7681818 C13.9489447,34.076595 14.5651093,34.076595 15.0408108,33.7681818 C18.0191892,32.1454545 28.3651351,25.8090909 28.3651351,18.7 L28.3651351,4.63636364 C28.3651351,3.94090909 14.257027,0 14.257027,0 Z" id="Shape"></path>
        </g>
        <path d="M18.6728045,14 C18.4708438,14 18.2680654,14.0760391 18.1110757,14.2330229 L15.7447831,16.5992278 C13.8772598,18.4666818 15.6425763,23.2628662 19.6899669,27.3092891 C22.6417003,30.260913 25.9924491,32 28.3137707,32 C29.1755788,32 29.8951149,31.7604361 30.4004255,31.2551442 L32.7675358,28.8881217 C33.112586,28.5422666 33.067615,27.9699296 32.6718702,27.6829434 L28.4879312,24.6078583 C28.3464769,24.4991142 28.1747694,24.4426982 28.0022443,24.4426982 C27.9033081,24.4426982 27.8035542,24.4606859 27.7078886,24.4991142 L24.9859162,25.624983 C24.339969,25.1139677 23.6972925,24.5514422 23.0726043,23.9267772 C22.4487338,23.3029298 21.8853697,22.6602771 21.3751532,22.0143538 L22.5141461,19.3047468 C22.6179883,19.0439246 22.5762879,18.7479446 22.4053981,18.5255508 L19.3162987,14.3278674 C19.159309,14.1111969 18.9172832,14 18.6728045,14 M18.5996813,16.25 L20.8043665,19.2468339 L19.8706553,21.4676946 L19.5028053,22.3434817 L20.0912043,23.0896716 C20.6570655,23.8060783 21.261563,24.4862622 21.8877934,25.1133193 C22.5099992,25.7355467 23.1909644,26.3392602 23.9105659,26.9083608 L24.6519003,27.4951703 L25.5244373,27.1337471 L27.7645391,26.2072481 L30.75,28.4015455 L29.1015169,30.0508908 C28.8849925,30.2666178 28.4841406,30.3125 28.185514,30.3125 C26.5909608,30.3125 23.698871,29.0302125 20.8341486,26.1661956 C16.9029028,22.2348133 16.206644,18.6423154 16.9503932,17.8985404 L18.5996813,16.25" id="Fill-13" fill="#FFFFFF"></path>
    </g>
</svg>