<?xml version="1.0" encoding="UTF-8"?>
<svg width="48px" height="51px" viewBox="0 0 48 51" version="1.1" xmlns="http://www.w3.org/2000/svg" xmlns:xlink="http://www.w3.org/1999/xlink">
    <!-- Generator: Sketch 57.1 (83088) - https://sketch.com -->
    <title>let us help you white theme</title>
    <desc>Created with Sketch.</desc>
    <defs>
        <filter x="-21.6%" y="-18.2%" width="143.2%" height="136.4%" filterUnits="objectBoundingBox" id="filter-1">
            <feOffset dx="0" dy="2" in="SourceAlpha" result="shadowOffsetOuter1"></feOffset>
            <feGaussianBlur stdDeviation="1" in="shadowOffsetOuter1" result="shadowBlurOuter1"></feGaussianBlur>
            <feColorMatrix values="0 0 0 0 0   0 0 0 0 0   0 0 0 0 0  0 0 0 0.15 0" type="matrix" in="shadowBlurOuter1" result="shadowMatrixOuter1"></feColorMatrix>
            <feMerge>
                <feMergeNode in="shadowMatrixOuter1"></feMergeNode>
                <feMergeNode in="SourceGraphic"></feMergeNode>
            </feMerge>
        </filter>
        <linearGradient x1="15.5632067%" y1="100%" x2="84.4367933%" y2="0%" id="linearGradient-2">
            <stop stop-color="#7282FB" offset="0%"></stop>
            <stop stop-color="#755BF9" offset="68.7141263%"></stop>
            <stop stop-color="#7934F7" offset="100%"></stop>
        </linearGradient>
    </defs>
    <g id="let-us-help-you-white-theme" stroke="none" stroke-width="1" fill="none" fill-rule="evenodd">
        <g id="Group" transform="translate(6.000000, 2.000000)" fill-rule="nonzero">
            <g id="Master_icon_grid-working-file--copy-91-Copy-Copy" filter="url(#filter-1)" fill="#FFFFFF">
                <path d="M18.07,0 C18.07,0 0.07,5.1 0.07,6 L0.07,24.2 C0.07,33.4 13.37,41.5 17.07,43.7 C17.6769295,44.099123 18.4630705,44.099123 19.07,43.7 C22.87,41.6 36.07,33.4 36.07,24.2 L36.07,6 C36.07,5.1 18.07,0 18.07,0 Z" id="Shape"></path>
            </g>
            <g id="Master_icon_grid-working-file--copy-92" transform="translate(4.000000, 5.000000)" fill="url(#linearGradient-2)">
                <path d="M14.257027,0 C14.257027,0 0.148918919,3.94090909 0.148918919,4.63636364 L0.148918919,18.7 C0.148918919,25.8090909 10.5732432,32.0681818 13.4732432,33.7681818 C13.9489447,34.076595 14.5651093,34.076595 15.0408108,33.7681818 C18.0191892,32.1454545 28.3651351,25.8090909 28.3651351,18.7 L28.3651351,4.63636364 C28.3651351,3.94090909 14.257027,0 14.257027,0 Z" id="Shape"></path>
            </g>
            <g id="Master_icon_grid-working-file--copy_custome-care" transform="translate(9.500000, 13.000000)" fill="#FFFFFF">
                <path d="M9.35142857,9.88285714 L9.35142857,10.1485714 C9.35142857,10.5793535 9.00221068,10.9285714 8.57142857,10.9285714 C8.14064647,10.9285714 7.79142857,10.5793535 7.79142857,10.1485714 L7.79142857,9.22285714 C7.79368927,9.01825755 7.87714075,8.82293735 8.02342189,8.67987118 C8.16970304,8.53680501 8.36682926,8.45771404 8.57142857,8.46 C9.40933552,8.44116585 10.0751739,7.74996675 10.0626878,6.91194117 C10.0502016,6.07391558 9.36406634,5.40286019 8.52597021,5.40899762 C7.68787409,5.41513505 7.01164022,6.09616715 7.01142857,6.93428571 C6.96964151,7.33126429 6.63488611,7.63263189 6.23571429,7.63263189 C5.83654246,7.63263189 5.50178706,7.33126429 5.46,6.93428571 C5.4211219,5.30283389 6.6460408,3.91703698 8.26992268,3.75531431 C9.89380455,3.59359164 11.3679768,4.7105856 11.6516242,6.31766082 C11.9352715,7.92473603 10.932556,9.4788985 9.35142857,9.88285714 M8.57142857,13.2428571 C8.25594802,13.2428571 7.97153172,13.0528162 7.85080254,12.7613502 C7.73007336,12.4698842 7.79680685,12.1343923 8.01988528,11.9113139 C8.24296372,11.6882354 8.57845562,11.6215019 8.86992165,11.7422311 C9.16138767,11.8629603 9.35142857,12.1473766 9.35142857,12.4628571 C9.35142857,12.8936392 9.00221068,13.2428571 8.57142857,13.2428571 M8.57142857,0 C3.83755929,0 0,3.83755929 0,8.57142857 C0,13.3052979 3.83755929,17.1428571 8.57142857,17.1428571 C13.3052979,17.1428571 17.1428571,13.3052979 17.1428571,8.57142857 C17.1428571,3.83755929 13.3052979,0 8.57142857,0" id="Fill-22"></path>
            </g>
        </g>
    </g>
</svg>