<svg xmlns="http://www.w3.org/2000/svg" xmlns:xlink="http://www.w3.org/1999/xlink" id="el_JeV6PbKvK" version="1.1" viewBox="0 0 160 104">
    <style>
        @-webkit-keyframes kf_el_nwnbV21v7HH_an_NFM6-59b-{0%{-webkit-transform: translate(-1.281410574913025px, -2.06320858001709px) translate(1.281410574913025px, 2.06320858001709px) translate(0px, 60px);transform: translate(-1.281410574913025px, -2.06320858001709px) translate(1.281410574913025px, 2.06320858001709px) translate(0px, 60px);}52%{-webkit-transform: translate(-1.281410574913025px, -2.06320858001709px) translate(1.281410574913025px, 2.06320858001709px) translate(0px, 0px);transform: translate(-1.281410574913025px, -2.06320858001709px) translate(1.281410574913025px, 2.06320858001709px) translate(0px, 0px);}100%{-webkit-transform: translate(-1.281410574913025px, -2.06320858001709px) translate(1.281410574913025px, 2.06320858001709px) translate(0px, 0px);transform: translate(-1.281410574913025px, -2.06320858001709px) translate(1.281410574913025px, 2.06320858001709px) translate(0px, 0px);}}@keyframes kf_el_nwnbV21v7HH_an_NFM6-59b-{0%{-webkit-transform: translate(-1.281410574913025px, -2.06320858001709px) translate(1.281410574913025px, 2.06320858001709px) translate(0px, 60px);transform: translate(-1.281410574913025px, -2.06320858001709px) translate(1.281410574913025px, 2.06320858001709px) translate(0px, 60px);}52%{-webkit-transform: translate(-1.281410574913025px, -2.06320858001709px) translate(1.281410574913025px, 2.06320858001709px) translate(0px, 0px);transform: translate(-1.281410574913025px, -2.06320858001709px) translate(1.281410574913025px, 2.06320858001709px) translate(0px, 0px);}100%{-webkit-transform: translate(-1.281410574913025px, -2.06320858001709px) translate(1.281410574913025px, 2.06320858001709px) translate(0px, 0px);transform: translate(-1.281410574913025px, -2.06320858001709px) translate(1.281410574913025px, 2.06320858001709px) translate(0px, 0px);}}@-webkit-keyframes kf_el_nwnbV21v7HH_an_byxo9fvOA{0%{opacity: 0;}52%{opacity: 1;}100%{opacity: 1;}}@keyframes kf_el_nwnbV21v7HH_an_byxo9fvOA{0%{opacity: 0;}52%{opacity: 1;}100%{opacity: 1;}}@-webkit-keyframes kf_el_SflN_Y9qnQ_an_FTBoSl29g{90.67%{opacity: 0;}100%{opacity: 1;}0%{opacity: 0;}}@keyframes kf_el_SflN_Y9qnQ_an_FTBoSl29g{90.67%{opacity: 0;}100%{opacity: 1;}0%{opacity: 0;}}@-webkit-keyframes kf_el_elBODbNrFx_an_Nhb5bw3yA{73.33%{opacity: 0;}93.33%{opacity: 1;}0%{opacity: 0;}100%{opacity: 1;}}@keyframes kf_el_elBODbNrFx_an_Nhb5bw3yA{73.33%{opacity: 0;}93.33%{opacity: 1;}0%{opacity: 0;}100%{opacity: 1;}}@-webkit-keyframes kf_el_IIwcJZFg4G_an_KGJo9yJY_{90.67%{opacity: 0;}100%{opacity: 1;}0%{opacity: 0;}}@keyframes kf_el_IIwcJZFg4G_an_KGJo9yJY_{90.67%{opacity: 0;}100%{opacity: 1;}0%{opacity: 0;}}@-webkit-keyframes kf_el_qZ-rvibZJX_an_lwSSCbS48{72%{opacity: 0;}92%{opacity: 1;}0%{opacity: 0;}100%{opacity: 1;}}@keyframes kf_el_qZ-rvibZJX_an_lwSSCbS48{72%{opacity: 0;}92%{opacity: 1;}0%{opacity: 0;}100%{opacity: 1;}}@-webkit-keyframes kf_el_iRXaKdNk85_an_WCKZjLLmH{64%{opacity: 0;}80%{opacity: 1;}0%{opacity: 0;}100%{opacity: 1;}}@keyframes kf_el_iRXaKdNk85_an_WCKZjLLmH{64%{opacity: 0;}80%{opacity: 1;}0%{opacity: 0;}100%{opacity: 1;}}@-webkit-keyframes kf_el_GV_hSLIO3R_an_LGcTZW8MC{80%{opacity: 0;}100%{opacity: 1;}0%{opacity: 0;}}@keyframes kf_el_GV_hSLIO3R_an_LGcTZW8MC{80%{opacity: 0;}100%{opacity: 1;}0%{opacity: 0;}}@-webkit-keyframes kf_el_SjSElTK8nF_an_pPkSrSRbd{72%{opacity: 0;}100%{opacity: 1;}0%{opacity: 0;}}@keyframes kf_el_SjSElTK8nF_an_pPkSrSRbd{72%{opacity: 0;}100%{opacity: 1;}0%{opacity: 0;}}@-webkit-keyframes kf_el_AP1Vjneq12_an_4B7TxGCRM{80%{opacity: 0;}100%{opacity: 1;}0%{opacity: 0;}}@keyframes kf_el_AP1Vjneq12_an_4B7TxGCRM{80%{opacity: 0;}100%{opacity: 1;}0%{opacity: 0;}}@-webkit-keyframes kf_el_nKNCvvmbs6_an_lfzxatXFr{66.67%{opacity: 0;}100%{opacity: 1;}0%{opacity: 0;}}@keyframes kf_el_nKNCvvmbs6_an_lfzxatXFr{66.67%{opacity: 0;}100%{opacity: 1;}0%{opacity: 0;}}@-webkit-keyframes kf_el_7uLTtUGBsC_an_ygrHwICy8{46.67%{opacity: 0;}70.67%{opacity: 1;}0%{opacity: 0;}100%{opacity: 1;}}@keyframes kf_el_7uLTtUGBsC_an_ygrHwICy8{46.67%{opacity: 0;}70.67%{opacity: 1;}0%{opacity: 0;}100%{opacity: 1;}}@-webkit-keyframes kf_el_Iab28vRivR_an_CAEyHZRv5{68%{opacity: 0;}88%{opacity: 1;}0%{opacity: 0;}100%{opacity: 1;}}@keyframes kf_el_Iab28vRivR_an_CAEyHZRv5{68%{opacity: 0;}88%{opacity: 1;}0%{opacity: 0;}100%{opacity: 1;}}@-webkit-keyframes kf_el_2l0T5MbkXa_an_2NfcwPItO{46.67%{opacity: 0;}68%{opacity: 1;}0%{opacity: 0;}100%{opacity: 1;}}@keyframes kf_el_2l0T5MbkXa_an_2NfcwPItO{46.67%{opacity: 0;}68%{opacity: 1;}0%{opacity: 0;}100%{opacity: 1;}}@-webkit-keyframes kf_el_AkefIcFXEh_an_c0lWcV8JT{73.33%{opacity: 0;}100%{opacity: 1;}0%{opacity: 0;}}@keyframes kf_el_AkefIcFXEh_an_c0lWcV8JT{73.33%{opacity: 0;}100%{opacity: 1;}0%{opacity: 0;}}#el_JeV6PbKvK *{-webkit-animation-duration: 2.5s;animation-duration: 2.5s;-webkit-animation-iteration-count: 1;animation-iteration-count: 1;-webkit-animation-timing-function: cubic-bezier(0, 0, 1, 1);animation-timing-function: cubic-bezier(0, 0, 1, 1);}#el_lmfOuwb-Tp{stroke: none;stroke-width: 1;fill: none;}#el_Chw_UhT114{fill: none;}#el_AkefIcFXEh{fill: #808080;-webkit-transform: translate(107.81297150288px, -72.77534400321008px) rotate(-315deg);transform: translate(107.81297150288px, -72.77534400321008px) rotate(-315deg);-webkit-animation-fill-mode: forwards;animation-fill-mode: forwards;-webkit-animation-name: kf_el_AkefIcFXEh_an_c0lWcV8JT;animation-name: kf_el_AkefIcFXEh_an_c0lWcV8JT;-webkit-animation-timing-function: cubic-bezier(0.42, 0, 1, 1);animation-timing-function: cubic-bezier(0.42, 0, 1, 1);}#el_2l0T5MbkXa{stroke: #808080;stroke-width: 1.34146341;-webkit-animation-fill-mode: forwards;animation-fill-mode: forwards;-webkit-animation-name: kf_el_2l0T5MbkXa_an_2NfcwPItO;animation-name: kf_el_2l0T5MbkXa_an_2NfcwPItO;-webkit-animation-timing-function: cubic-bezier(0.42, 0, 1, 1);animation-timing-function: cubic-bezier(0.42, 0, 1, 1);}#el_Iab28vRivR{stroke: #808080;stroke-width: 1.34146341;-webkit-animation-fill-mode: forwards;animation-fill-mode: forwards;-webkit-animation-name: kf_el_Iab28vRivR_an_CAEyHZRv5;animation-name: kf_el_Iab28vRivR_an_CAEyHZRv5;-webkit-animation-timing-function: cubic-bezier(0.42, 0, 1, 1);animation-timing-function: cubic-bezier(0.42, 0, 1, 1);}#el_7uLTtUGBsC{stroke: #808080;stroke-width: 1.34146341;-webkit-animation-fill-mode: forwards;animation-fill-mode: forwards;-webkit-animation-name: kf_el_7uLTtUGBsC_an_ygrHwICy8;animation-name: kf_el_7uLTtUGBsC_an_ygrHwICy8;-webkit-animation-timing-function: cubic-bezier(0.42, 0, 1, 1);animation-timing-function: cubic-bezier(0.42, 0, 1, 1);}#el_nKNCvvmbs6{fill: #808080;-webkit-transform: translate(79.61186574269914px, -75.1089615189928px) rotate(39deg);transform: translate(79.61186574269914px, -75.1089615189928px) rotate(39deg);-webkit-animation-fill-mode: forwards;animation-fill-mode: forwards;-webkit-animation-name: kf_el_nKNCvvmbs6_an_lfzxatXFr;animation-name: kf_el_nKNCvvmbs6_an_lfzxatXFr;-webkit-animation-timing-function: cubic-bezier(0.42, 0, 1, 1);animation-timing-function: cubic-bezier(0.42, 0, 1, 1);}#el_AP1Vjneq12{fill: #808080;-webkit-transform: translate(52.37802658409365px, -86.8786521945393px) rotate(39deg);transform: translate(52.37802658409365px, -86.8786521945393px) rotate(39deg);-webkit-animation-fill-mode: forwards;animation-fill-mode: forwards;-webkit-animation-name: kf_el_AP1Vjneq12_an_4B7TxGCRM;animation-name: kf_el_AP1Vjneq12_an_4B7TxGCRM;-webkit-animation-timing-function: cubic-bezier(0.42, 0, 1, 1);animation-timing-function: cubic-bezier(0.42, 0, 1, 1);}#el_SjSElTK8nF{stroke: #707070;stroke-width: 1.34146341;-webkit-transform: translate(316.9244569000808px, 106.04143991391432px) scale(-1, 1) rotate(-37deg);transform: translate(316.9244569000808px, 106.04143991391432px) scale(-1, 1) rotate(-37deg);-webkit-animation-fill-mode: forwards;animation-fill-mode: forwards;-webkit-animation-name: kf_el_SjSElTK8nF_an_pPkSrSRbd;animation-name: kf_el_SjSElTK8nF_an_pPkSrSRbd;-webkit-animation-timing-function: cubic-bezier(0, 0, 0.58, 1);animation-timing-function: cubic-bezier(0, 0, 0.58, 1);}#el_GV_hSLIO3R{stroke: #707070;stroke-width: 1.34146341;-webkit-transform: translate(47.18803375552771px, 15.788895230978977px) scale(-1, 1) rotate(-37deg);transform: translate(47.18803375552771px, 15.788895230978977px) scale(-1, 1) rotate(-37deg);-webkit-animation-fill-mode: forwards;animation-fill-mode: forwards;-webkit-animation-name: kf_el_GV_hSLIO3R_an_LGcTZW8MC;animation-name: kf_el_GV_hSLIO3R_an_LGcTZW8MC;-webkit-animation-timing-function: cubic-bezier(0.42, 0, 1, 1);animation-timing-function: cubic-bezier(0.42, 0, 1, 1);}#el_iRXaKdNk85{stroke: #707070;stroke-width: 1.34146341;-webkit-transform: translate(263.6636898063282px, 88.22063653138372px) scale(-1, 1) rotate(-37deg);transform: translate(263.6636898063282px, 88.22063653138372px) scale(-1, 1) rotate(-37deg);-webkit-animation-fill-mode: forwards;animation-fill-mode: forwards;-webkit-animation-name: kf_el_iRXaKdNk85_an_WCKZjLLmH;animation-name: kf_el_iRXaKdNk85_an_WCKZjLLmH;-webkit-animation-timing-function: cubic-bezier(0.42, 0, 1, 1);animation-timing-function: cubic-bezier(0.42, 0, 1, 1);}#el_qZ-rvibZJX{stroke: #808080;stroke-width: 1.34146341;-webkit-animation-fill-mode: forwards;animation-fill-mode: forwards;-webkit-animation-name: kf_el_qZ-rvibZJX_an_lwSSCbS48;animation-name: kf_el_qZ-rvibZJX_an_lwSSCbS48;-webkit-animation-timing-function: cubic-bezier(0, 0, 0.58, 1);animation-timing-function: cubic-bezier(0, 0, 0.58, 1);}#el_IIwcJZFg4G{fill: #808080;-webkit-transform: translate(65.09579074876466px, 20.065037121265803px) rotate(-315deg);transform: translate(65.09579074876466px, 20.065037121265803px) rotate(-315deg);-webkit-animation-fill-mode: forwards;animation-fill-mode: forwards;-webkit-animation-name: kf_el_IIwcJZFg4G_an_KGJo9yJY_;animation-name: kf_el_IIwcJZFg4G_an_KGJo9yJY_;-webkit-animation-timing-function: cubic-bezier(0, 0, 0.58, 1);animation-timing-function: cubic-bezier(0, 0, 0.58, 1);}#el_elBODbNrFx{fill: #808080;-webkit-transform: translate(71.68977848179581px, 23.987064335972846px) scale(-1, 1) rotate(-37deg);transform: translate(71.68977848179581px, 23.987064335972846px) scale(-1, 1) rotate(-37deg);-webkit-animation-fill-mode: forwards;animation-fill-mode: forwards;-webkit-animation-name: kf_el_elBODbNrFx_an_Nhb5bw3yA;animation-name: kf_el_elBODbNrFx_an_Nhb5bw3yA;-webkit-animation-timing-function: cubic-bezier(0.42, 0, 1, 1);animation-timing-function: cubic-bezier(0.42, 0, 1, 1);}#el_SflN_Y9qnQ{fill: #808080;-webkit-transform: translate(56.62945816818038px, 18.947951648909225px) scale(-1, 1) rotate(-37deg);transform: translate(56.62945816818038px, 18.947951648909225px) scale(-1, 1) rotate(-37deg);-webkit-animation-fill-mode: forwards;animation-fill-mode: forwards;-webkit-animation-name: kf_el_SflN_Y9qnQ_an_FTBoSl29g;animation-name: kf_el_SflN_Y9qnQ_an_FTBoSl29g;-webkit-animation-timing-function: cubic-bezier(0.42, 0, 1, 1);animation-timing-function: cubic-bezier(0.42, 0, 1, 1);}#el_6HSsZTIavLh{-webkit-transform: translate(33px, 30px);transform: translate(33px, 30px);}#el_7UOXIYDK1by{fill: url(#linearGradient-2);}#el_mpA2z8hYfqB{fill: black;fill-opacity: 1;}#el_LIc4CDs520f{fill: #121212;}#el_nwnbV21v7HH{-webkit-transform: translate(44px, 15px);transform: translate(44px, 15px);-webkit-animation-fill-mode: forwards;animation-fill-mode: forwards;-webkit-animation-name: kf_el_nwnbV21v7HH_an_byxo9fvOA;animation-name: kf_el_nwnbV21v7HH_an_byxo9fvOA;-webkit-animation-timing-function: cubic-bezier(0, 0, 0.58, 1);animation-timing-function: cubic-bezier(0, 0, 0.58, 1);}#el_okBr5rqzgVe{-webkit-transform: translate(0.781798px, 0px);transform: translate(0.781798px, 0px);fill: url(#linearGradient-6);stroke: #fff;stroke-width: 4.12641704;}#el_-m82MT6Ij3u{-webkit-transform: translate(0px, 0px);transform: translate(0px, 0px);}#el_vjDgPCnF6lf{fill-opacity: 0.6;fill: #121212;}#el_kzenbpNSs3Q{-webkit-transform: translate(17px, 17px);transform: translate(17px, 17px);fill: #121212;opacity: 0.6;}#el_4HWJZ-EMrgH{-webkit-transform: translate(33px, 51.515606px);transform: translate(33px, 51.515606px);fill: url(#linearGradient-2);}#el_297t6letwyQ{-webkit-transform: translate(143.437374px, 0px) scale(-1, 1);transform: translate(143.437374px, 0px) scale(-1, 1);}#el_nwnbV21v7HH_an_NFM6-59b-{-webkit-animation-fill-mode: forwards;animation-fill-mode: forwards;-webkit-animation-name: kf_el_nwnbV21v7HH_an_NFM6-59b-;animation-name: kf_el_nwnbV21v7HH_an_NFM6-59b-;-webkit-animation-timing-function: cubic-bezier(0, 0, 0.58, 1);animation-timing-function: cubic-bezier(0, 0, 0.58, 1);}
    </style>
    <defs>
        <filter id="filter-1" width="136.5%" height="160.3%" x="-18.2%" y="-27.8%" filterUnits="objectBoundingBox">
            <feOffset dx="0" dy="3" in="SourceAlpha" result="shadowOffsetOuter1"/>
            <feGaussianBlur in="shadowOffsetOuter1" result="shadowBlurOuter1" stdDeviation="3"/>
            <feColorMatrix in="shadowBlurOuter1" result="shadowMatrixOuter1" type="matrix" values="0 0 0 0 0   0 0 0 0 0   0 0 0 0 0  0 0 0 0.15 0"/>
            <feMerge>
                <feMergeNode in="shadowMatrixOuter1"/>
                <feMergeNode in="SourceGraphic"/>
            </feMerge>
        </filter>
        <linearGradient id="linearGradient-2" x1="50%" x2="50%" y1="90.7019413%" y2="0%">
            <stop offset="0%" stop-color="#707070"/>
            <stop offset="100%" stop-color="#707070"/>
        </linearGradient>
        <rect id="path-3" width="86.0624248" height="54.9843269" x="5.27472527" y="7.38461538" rx="3.17416695"/>
        <filter id="filter-5" width="159.5%" height="255.2%" x="-30.4%" y="-77.6%" filterUnits="objectBoundingBox">
            <feOffset dx="0" dy="3" in="SourceAlpha" result="shadowOffsetOuter1"/>
            <feGaussianBlur in="shadowOffsetOuter1" result="shadowBlurOuter1" stdDeviation="3"/>
            <feColorMatrix in="shadowBlurOuter1" result="shadowMatrixOuter1" type="matrix" values="0 0 0 0 0   0 0 0 0 0   0 0 0 0 0  0 0 0 0.15 0"/>
            <feMerge>
                <feMergeNode in="shadowMatrixOuter1"/>
                <feMergeNode in="SourceGraphic"/>
            </feMerge>
        </filter>
        <linearGradient id="linearGradient-6" x1="0%" x2="100%" y1="100%" y2="0%">
            <stop offset="0%" stop-color="#7282FB"/>
            <stop offset="68.7141263%" stop-color="#755BF9"/>
            <stop offset="100%" stop-color="#7934F7"/>
        </linearGradient>
        <filter id="filter-7" width="137.0%" height="173.4%" x="-18.3%" y="-35.7%" filterUnits="objectBoundingBox">
            <feOffset dx="0" dy="3" in="SourceAlpha" result="shadowOffsetOuter1"/>
            <feGaussianBlur in="shadowOffsetOuter1" result="shadowBlurOuter1" stdDeviation="3"/>
            <feColorMatrix in="shadowBlurOuter1" result="shadowMatrixOuter1" type="matrix" values="0 0 0 0 0   0 0 0 0 0   0 0 0 0 0  0 0 0 0.15 0"/>
            <feMerge>
                <feMergeNode in="shadowMatrixOuter1"/>
                <feMergeNode in="SourceGraphic"/>
            </feMerge>
        </filter>
    </defs>
    <g id="el_lmfOuwb-Tp" fill-rule="evenodd">
        <rect id="el_Chw_UhT114" width="160" height="104" x="0" y="0"/>
        <path id="el_AkefIcFXEh" d="M136.368309,88.2881479 C140.984061,92.9741444 142.539812,92.9818098 147.254097,88.3364333 C142.539812,92.9818098 142.52413,94.5394302 147.138104,99.2200459 C142.52413,94.5394302 140.965697,94.5281823 136.254097,99.1762435 C140.9657,94.5272846 140.984061,92.9741444 136.368309,88.2881479 Z"/>
        <path id="el_2l0T5MbkXa" d="M147.641502,46.8401493 L144.342002,48.0942876 L144.342002,49.766472 C144.343224,51.8909245 145.665178,53.784004 147.641502,54.4914591 C149.617826,53.784004 150.93978,51.8909245 150.941002,49.766472 L150.941002,48.0942876 L147.641502,46.8401493 Z"/>
        <path id="el_Iab28vRivR" d="M139.5,4 L137,4.95024875 L137,6.21724709 C137.000926,7.82692462 138.002558,9.26129309 139.5,9.7973251 C140.997442,9.26129309 141.999074,7.82692462 142,6.21724709 L142,4.95024875 L139.5,4 Z"/>
        <path id="el_7uLTtUGBsC" d="M20,22 L17,23.1402985 L17,24.6606965 C17.0011112,26.5923095 18.2030697,28.3135517 20,28.9567901 C21.7969303,28.3135517 22.9988888,26.5923095 23,24.6606965 L23,23.1402985 L20,22 Z"/>
        <path id="el_nKNCvvmbs6" d="M146.406432,74.3074841 L147.260851,74.3074841 C148.003811,74.3074841 148.606099,74.905176 148.606099,75.4005284 L148.606099,74.3074841 C148.606099,74.9111558 147.99658,75.4005284 147.260851,75.4005284 L146.406432,75.4005284 L146.406432,77.0426101 C146.406432,77.3430568 146.151344,77.5866169 145.856515,77.5866169 C145.552805,77.5866169 145.306599,77.3375862 145.306599,77.0426101 L145.306599,75.4005284 L144.452179,75.4005284 C143.70922,75.4005284 143.106932,74.8028365 143.106932,74.3074841 L143.106932,75.4005284 C143.106932,74.7968567 143.71645,74.3074841 144.452179,74.3074841 L145.306599,74.3074841 L145.306599,72.6654024 C145.306599,72.3649557 145.561687,72.1213956 145.856515,72.1213956 C146.160226,72.1213956 146.406432,72.3704263 146.406432,72.6654024 L146.406432,74.3074841 Z"/>
        <path id="el_AP1Vjneq12" d="M149.357886,29.9050548 L149.857721,29.9050548 C150.68624,29.9050548 151.357886,30.5733829 151.357886,31.127277 L151.357886,29.9050548 C151.357886,30.5800695 150.683564,31.127277 149.857721,31.127277 L149.357886,31.127277 L149.357886,32.5184671 C149.357886,32.7933385 149.125953,33.0161659 148.857886,33.0161659 C148.581744,33.0161659 148.357886,32.8013221 148.357886,32.5184671 L148.357886,31.127277 L147.858051,31.127277 C147.029533,31.127277 146.357886,30.4589488 146.357886,29.9050548 L146.357886,31.127277 C146.357886,30.4522623 147.032208,29.9050548 147.858051,29.9050548 L148.357886,29.9050548 L148.357886,28.5138647 C148.357886,28.2389932 148.58982,28.0161659 148.857886,28.0161659 C149.134029,28.0161659 149.357886,28.2310096 149.357886,28.5138647 L149.357886,29.9050548 Z"/>
        <circle id="el_SjSElTK8nF" cx="153.952362" cy="66.4992902" r="2.01219512"/>
        <circle id="el_GV_hSLIO3R" cx="10.3913867" cy="47.3529488" r="2.01219512"/>
        <circle id="el_iRXaKdNk85" cx="137.806021" cy="26.2553878" r="2.01219512"/>
        <path id="el_qZ-rvibZJX" d="M23.5127336,89.1328322 L20.2932214,90.331593 L20.2932214,91.9299407 C20.2944139,93.9605862 21.5843206,95.7700752 23.5127336,96.446292 C25.4411465,95.7700752 26.7310533,93.9605862 26.7322458,91.9299407 L26.7322458,90.331593 L23.5127336,89.1328322 Z"/>
        <path id="el_IIwcJZFg4G" d="M4.62300671,84.8590146 C7.79763594,88.0748369 8.86765317,88.0800973 12.1100517,84.8921511 C8.86765317,88.0800973 8.85686764,89.1490334 12.0302736,92.3611629 C8.85686764,89.1490334 7.78500584,89.1413144 4.54445381,92.331103 C7.78500778,89.1406983 7.79763594,88.0748369 4.62300671,84.8590146 Z"/>
        <path id="el_elBODbNrFx" d="M21.6653161,56.0173173 L22.2447769,56.0173173 C22.9877366,56.0173173 23.5900245,56.6092384 23.5900245,57.356162 L23.5900245,56.3180391 C23.5900245,57.0574625 22.9805062,57.6568837 22.2447769,57.6568837 L21.6653161,57.6568837 L21.6653161,58.7396617 C21.6653161,59.1980853 21.2991831,59.5697112 20.8404411,59.5697112 C20.3848752,59.5697112 20.0155661,59.1940644 20.0155661,58.7396617 L20.0155661,57.6568837 L19.4361052,57.6568837 C18.6931455,57.6568837 18.0908577,57.0649626 18.0908577,56.3180391 L18.0908577,57.356162 C18.0908577,56.6167385 18.700376,56.0173173 19.4361052,56.0173173 L20.0155661,56.0173173 L20.0155661,54.9345393 C20.0155661,54.4761157 20.3816991,54.1044898 20.8404411,54.1044898 C21.296007,54.1044898 21.6653161,54.4801366 21.6653161,54.9345393 L21.6653161,56.0173173 Z"/>
        <path id="el_SflN_Y9qnQ" d="M29.2756107,8.24771047 L29.8550715,8.24771047 C30.5980312,8.24771047 31.2003191,8.83963156 31.2003191,9.58655512 L31.2003191,8.54843222 C31.2003191,9.2878557 30.5908008,9.88727686 29.8550715,9.88727686 L29.2756107,9.88727686 L29.2756107,10.9700548 C29.2756107,11.4284785 28.9094777,11.8001043 28.4507357,11.8001043 C27.9951698,11.8001043 27.6258606,11.4244575 27.6258606,10.9700548 L27.6258606,9.88727686 L27.0463998,9.88727686 C26.3034401,9.88727686 25.7011523,9.29535577 25.7011523,8.54843222 L25.7011523,9.58655512 C25.7011523,8.84713164 26.3106705,8.24771047 27.0463998,8.24771047 L27.6258606,8.24771047 L27.6258606,7.16493249 C27.6258606,6.70650882 27.9919936,6.33488301 28.4507357,6.33488301 C28.9063015,6.33488301 29.2756107,6.7105298 29.2756107,7.16493249 L29.2756107,8.24771047 Z"/>
        <g id="el_6HSsZTIavLh" filter="url(#filter-1)">
            <g id="el_5Fhv-xZ-DGZ">
                <rect id="el_7UOXIYDK1by" width="95.6249164" height="37.0546551" x="0" y="0" rx="6.34833391"/>
                <g id="el_b6R_KRc9F5n">
                    <use id="el_mpA2z8hYfqB" filter="none" xlink:href="#path-3"/>
                    <use id="el_LIc4CDs520f" fill-rule="evenodd" xlink:href="#path-3"/>
                </g>
            </g>
        </g>
        <g id="el_nwnbV21v7HH_an_NFM6-59b-" data-animator-group="true" data-animator-type="0">
            <g id="el_nwnbV21v7HH">
                <g id="el_okBr5rqzgVe" filter="url(#filter-5)">
                    <g id="el_RbGlzKHthzZ">
                        <g id="el_-m82MT6Ij3u">
                            <rect id="el_TVREkp4YURX" width="77.2513024" height="33.0718567" x="-2.06320852" y="-2.06320852" rx="2.75094469"/>
                        </g>
                    </g>
                </g>
                <path id="el_vjDgPCnF6lf" d="M38.2017222,7.44244167 C38.2017222,8.40254395 37.4857356,9.18078841 36.6013395,9.18078841 C35.7179282,9.18078841 35.0009568,8.40254395 35.0009568,7.44244167 C35.0009568,6.4823394 35.7179282,5.70409493 36.6013395,5.70409493 C37.4857356,5.70409493 38.2017222,6.4823394 38.2017222,7.44244167 M33.4005741,11.9522183 C33.4283937,11.5745959 33.6189316,11.2253219 33.9307209,10.9257914 C34.0000074,10.8594668 34.0671944,10.7915375 34.1480286,10.7305617 C34.7737069,10.2561267 35.729021,9.95338697 36.8013873,9.95338697 C37.8737537,9.95338697 38.8290678,10.2561267 39.454746,10.7305617 C39.5355803,10.7915375 39.6027672,10.8594668 39.6720538,10.9257914 C39.9838431,11.2253219 40.174381,11.5745959 40.2022006,11.9522183 C39.3550155,12.8492052 38.1729455,13.4129644 36.8617506,13.4300804 L36.7410241,13.4300804 C35.4298292,13.4129644 34.2477592,12.8492052 33.4005741,11.9522183 M31,8.6013395 C31,11.6948065 33.5078725,14.202679 36.6013395,14.202679 C39.6948065,14.202679 42.202679,11.6948065 42.202679,8.6013395 C42.202679,5.50787246 39.6948065,3 36.6013395,3 C33.5078725,3 31,5.50787246 31,8.6013395 Z"/>
                <g id="el_kzenbpNSs3Q">
                    <path id="el_JgscFkD0YV_" d="M4.18655319,3.20736842 C4.56851064,3.02596491 4.928,2.8445614 5.27625532,2.66315789 C5.62451064,2.48175439 5.89787234,2.35052632 6.10008511,2.26561404 C6.30229787,2.18070175 6.46706383,2.13824561 6.5906383,2.13824561 C6.79659574,2.13824561 6.97259574,2.2077193 7.12238298,2.35052632 C7.27217021,2.49333333 7.34706383,2.66701754 7.34706383,2.87929825 C7.34706383,2.99894737 7.30961702,3.12631579 7.23846809,3.25368421 C7.16731915,3.38105263 7.08868085,3.46596491 7.00629787,3.50070175 C6.24987234,3.80947368 5.42229787,4.02947368 4.51234043,4.16842105 C4.67710638,4.32666667 4.87931915,4.53508772 5.11897872,4.79368421 C5.3586383,5.0522807 5.48595745,5.19122807 5.49719149,5.21052632 C5.58331915,5.33789474 5.70689362,5.4922807 5.86417021,5.68140351 C6.02144681,5.87052632 6.13004255,6.01333333 6.19370213,6.12140351 C6.2573617,6.22947368 6.28731915,6.35684211 6.28731915,6.50736842 C6.28731915,6.70035088 6.21617021,6.87017544 6.07761702,7.01298246 C5.93906383,7.15578947 5.75557447,7.22912281 5.5346383,7.22912281 C5.31370213,7.22912281 5.06280851,7.05157895 4.78570213,6.69649123 C4.50859574,6.34140351 4.14910638,5.70070175 3.71097872,4.77824561 C3.2653617,5.61192982 2.96953191,6.16 2.816,6.42631579 C2.66246809,6.69263158 2.51642553,6.89333333 2.37787234,7.02842105 C2.23931915,7.16350877 2.07829787,7.23298246 1.89480851,7.23298246 C1.67761702,7.23298246 1.49787234,7.15578947 1.35557447,7.00140351 C1.2132766,6.84701754 1.14212766,6.68491228 1.14212766,6.50736842 C1.14212766,6.34526316 1.17208511,6.22175439 1.22825532,6.13684211 C1.76748936,5.38421053 2.32919149,4.72807018 2.9133617,4.1722807 C2.42280851,4.09508772 1.98468085,4.00631579 1.59523404,3.90982456 C1.20953191,3.81333333 0.801361702,3.67052632 0.366978723,3.48526316 C0.295829787,3.45052632 0.228425532,3.36561404 0.161021277,3.23824561 C0.0936170213,3.11087719 0.0599148936,2.99122807 0.0599148936,2.87929825 C0.0599148936,2.66701754 0.134808511,2.49333333 0.284595745,2.35052632 C0.434382979,2.2077193 0.606638298,2.13824561 0.797617021,2.13824561 C0.939914894,2.13824561 1.11217021,2.18070175 1.32561702,2.26947368 C1.53906383,2.35824561 1.80493617,2.48175439 2.12697872,2.6477193 C2.44902128,2.81368421 2.82348936,2.99894737 3.23540426,3.20350877 C3.16051064,2.82526316 3.09685106,2.38912281 3.04817021,1.89508772 C2.99948936,1.40105263 2.9732766,1.06912281 2.9732766,0.887719298 C2.9732766,0.663859649 3.04068085,0.474736842 3.17923404,0.312631579 C3.31778723,0.150526316 3.49378723,0.0733333333 3.71097872,0.0733333333 C3.92068085,0.0733333333 4.09668085,0.154385965 4.23148936,0.312631579 C4.36629787,0.470877193 4.43744681,0.683157895 4.43744681,0.949473684 C4.43744681,1.02280702 4.42621277,1.16561404 4.40748936,1.37789474 C4.38876596,1.59017544 4.35880851,1.85263158 4.3213617,2.15754386 C4.28391489,2.46245614 4.23148936,2.81368421 4.18655319,3.20736842 Z"/>
                    <path id="el_lmDJxSbeCPZ" d="M15.0059574,3.20736842 C15.3879149,3.02596491 15.7474043,2.8445614 16.0956596,2.66315789 C16.4439149,2.48175439 16.7172766,2.35052632 16.9194894,2.26561404 C17.1217021,2.18070175 17.2864681,2.13824561 17.4100426,2.13824561 C17.616,2.13824561 17.792,2.2077193 17.9417872,2.35052632 C18.0915745,2.49333333 18.1664681,2.66701754 18.1664681,2.87929825 C18.1664681,2.99894737 18.1290213,3.12631579 18.0578723,3.25368421 C17.9867234,3.38105263 17.9080851,3.46596491 17.8257021,3.50070175 C17.0692766,3.80947368 16.2417021,4.02947368 15.3317447,4.16842105 C15.4965106,4.32666667 15.6987234,4.53508772 15.938383,4.79368421 C16.1780426,5.0522807 16.3053617,5.19122807 16.3165957,5.21052632 C16.4027234,5.33789474 16.5262979,5.4922807 16.6835745,5.68140351 C16.8408511,5.87052632 16.9494468,6.01333333 17.0131064,6.12140351 C17.076766,6.22947368 17.1067234,6.35684211 17.1067234,6.50736842 C17.1067234,6.70035088 17.0355745,6.87017544 16.8970213,7.01298246 C16.7584681,7.15578947 16.5749787,7.22912281 16.3540426,7.22912281 C16.1331064,7.22912281 15.8822128,7.05157895 15.6051064,6.69649123 C15.328,6.34140351 14.9685106,5.70070175 14.530383,4.77824561 C14.084766,5.61192982 13.7889362,6.16 13.6354043,6.42631579 C13.4818723,6.69263158 13.3358298,6.89333333 13.1972766,7.02842105 C13.0587234,7.16350877 12.8977021,7.23298246 12.7142128,7.23298246 C12.4970213,7.23298246 12.3172766,7.15578947 12.1749787,7.00140351 C12.0326809,6.84701754 11.9615319,6.68491228 11.9615319,6.50736842 C11.9615319,6.34526316 11.9914894,6.22175439 12.0476596,6.13684211 C12.5868936,5.38421053 13.1485957,4.72807018 13.732766,4.1722807 C13.2422128,4.09508772 12.8040851,4.00631579 12.4146383,3.90982456 C12.0289362,3.81333333 11.620766,3.67052632 11.186383,3.48526316 C11.115234,3.45052632 11.0478298,3.36561404 10.9804255,3.23824561 C10.9130213,3.11087719 10.8793191,2.99122807 10.8793191,2.87929825 C10.8793191,2.66701754 10.9542128,2.49333333 11.104,2.35052632 C11.2537872,2.2077193 11.4260426,2.13824561 11.6170213,2.13824561 C11.7593191,2.13824561 11.9315745,2.18070175 12.1450213,2.26947368 C12.3584681,2.35824561 12.6243404,2.48175439 12.946383,2.6477193 C13.2684255,2.81368421 13.6428936,2.99894737 14.0548085,3.20350877 C13.9799149,2.82526316 13.9162553,2.38912281 13.8675745,1.89508772 C13.8188936,1.40105263 13.7926809,1.06912281 13.7926809,0.887719298 C13.7926809,0.663859649 13.8600851,0.474736842 13.9986383,0.312631579 C14.1371915,0.150526316 14.3131915,0.0733333333 14.530383,0.0733333333 C14.7400851,0.0733333333 14.9160851,0.154385965 15.0508936,0.312631579 C15.1857021,0.470877193 15.2568511,0.683157895 15.2568511,0.949473684 C15.2568511,1.02280702 15.245617,1.16561404 15.2268936,1.37789474 C15.2081702,1.59017544 15.1782128,1.85263158 15.140766,2.15754386 C15.1033191,2.46245614 15.0508936,2.81368421 15.0059574,3.20736842 Z"/>
                    <path id="el_7cmXBdkSahd" d="M25.8253617,3.20736842 C26.2073191,3.02596491 26.5668085,2.8445614 26.9150638,2.66315789 C27.2633191,2.48175439 27.5366809,2.35052632 27.7388936,2.26561404 C27.9411064,2.18070175 28.1058723,2.13824561 28.2294468,2.13824561 C28.4354043,2.13824561 28.6114043,2.2077193 28.7611915,2.35052632 C28.9109787,2.49333333 28.9858723,2.66701754 28.9858723,2.87929825 C28.9858723,2.99894737 28.9484255,3.12631579 28.8772766,3.25368421 C28.8061277,3.38105263 28.7274894,3.46596491 28.6451064,3.50070175 C27.8886809,3.80947368 27.0611064,4.02947368 26.1511489,4.16842105 C26.3159149,4.32666667 26.5181277,4.53508772 26.7577872,4.79368421 C26.9974468,5.0522807 27.124766,5.19122807 27.136,5.21052632 C27.2221277,5.33789474 27.3457021,5.4922807 27.5029787,5.68140351 C27.6602553,5.87052632 27.7688511,6.01333333 27.8325106,6.12140351 C27.8961702,6.22947368 27.9261277,6.35684211 27.9261277,6.50736842 C27.9261277,6.70035088 27.8549787,6.87017544 27.7164255,7.01298246 C27.5778723,7.15578947 27.394383,7.22912281 27.1734468,7.22912281 C26.9525106,7.22912281 26.701617,7.05157895 26.4245106,6.69649123 C26.1474043,6.34140351 25.7879149,5.70070175 25.3497872,4.77824561 C24.9041702,5.61192982 24.6083404,6.16 24.4548085,6.42631579 C24.3012766,6.69263158 24.155234,6.89333333 24.0166809,7.02842105 C23.8781277,7.16350877 23.7171064,7.23298246 23.533617,7.23298246 C23.3164255,7.23298246 23.1366809,7.15578947 22.994383,7.00140351 C22.8520851,6.84701754 22.7809362,6.68491228 22.7809362,6.50736842 C22.7809362,6.34526316 22.8108936,6.22175439 22.8670638,6.13684211 C23.4062979,5.38421053 23.968,4.72807018 24.5521702,4.1722807 C24.061617,4.09508772 23.6234894,4.00631579 23.2340426,3.90982456 C22.8483404,3.81333333 22.4401702,3.67052632 22.0057872,3.48526316 C21.9346383,3.45052632 21.867234,3.36561404 21.7998298,3.23824561 C21.7324255,3.11087719 21.6987234,2.99122807 21.6987234,2.87929825 C21.6987234,2.66701754 21.773617,2.49333333 21.9234043,2.35052632 C22.0731915,2.2077193 22.2454468,2.13824561 22.4364255,2.13824561 C22.5787234,2.13824561 22.7509787,2.18070175 22.9644255,2.26947368 C23.1778723,2.35824561 23.4437447,2.48175439 23.7657872,2.6477193 C24.0878298,2.81368421 24.4622979,2.99894737 24.8742128,3.20350877 C24.7993191,2.82526316 24.7356596,2.38912281 24.6869787,1.89508772 C24.6382979,1.40105263 24.6120851,1.06912281 24.6120851,0.887719298 C24.6120851,0.663859649 24.6794894,0.474736842 24.8180426,0.312631579 C24.9565957,0.150526316 25.1325957,0.0733333333 25.3497872,0.0733333333 C25.5594894,0.0733333333 25.7354894,0.154385965 25.8702979,0.312631579 C26.0051064,0.470877193 26.0762553,0.683157895 26.0762553,0.949473684 C26.0762553,1.02280702 26.0650213,1.16561404 26.0462979,1.37789474 C26.0275745,1.59017544 25.997617,1.85263158 25.9601702,2.15754386 C25.9227234,2.46245614 25.8740426,2.81368421 25.8253617,3.20736842 Z"/>
                    <path id="el_Q9f16bP0NMH" d="M36.6485106,3.20736842 C37.0304681,3.02596491 37.3899574,2.8445614 37.7382128,2.66315789 C38.0864681,2.48175439 38.3598298,2.35052632 38.5620426,2.26561404 C38.7642553,2.18070175 38.9290213,2.13824561 39.0525957,2.13824561 C39.2585532,2.13824561 39.4345532,2.2077193 39.5843404,2.35052632 C39.7341277,2.49333333 39.8090213,2.66701754 39.8090213,2.87929825 C39.8090213,2.99894737 39.7715745,3.12631579 39.7004255,3.25368421 C39.6292766,3.38105263 39.5506383,3.46596491 39.4682553,3.50070175 C38.7118298,3.80947368 37.8805106,4.02947368 36.9742979,4.16842105 C37.1390638,4.32666667 37.3412766,4.53508772 37.5809362,4.79368421 C37.8205957,5.0522807 37.9479149,5.19122807 37.9591489,5.21052632 C38.0452766,5.33789474 38.1688511,5.4922807 38.3261277,5.68140351 C38.4834043,5.87052632 38.592,6.01333333 38.6556596,6.12140351 C38.7193191,6.22947368 38.7492766,6.35684211 38.7492766,6.50736842 C38.7492766,6.70035088 38.6781277,6.87017544 38.5395745,7.01298246 C38.4010213,7.15578947 38.2175319,7.22912281 37.9965957,7.22912281 C37.7756596,7.22912281 37.524766,7.05157895 37.2476596,6.69649123 C36.9705532,6.34140351 36.6110638,5.70070175 36.1729362,4.77824561 C35.7273191,5.61192982 35.4314894,6.16 35.2779574,6.42631579 C35.1244255,6.69263158 34.978383,6.89333333 34.8398298,7.02842105 C34.7012766,7.16350877 34.5402553,7.23298246 34.356766,7.23298246 C34.1395745,7.23298246 33.9598298,7.15578947 33.8175319,7.00140351 C33.675234,6.84701754 33.6040851,6.68491228 33.6040851,6.50736842 C33.6040851,6.34526316 33.6340426,6.22175439 33.6902128,6.13684211 C34.2294468,5.38421053 34.7911489,4.72807018 35.3753191,4.1722807 C34.884766,4.09508772 34.4466383,4.00631579 34.0571915,3.90982456 C33.6714894,3.81333333 33.2633191,3.67052632 32.8289362,3.48526316 C32.7577872,3.45052632 32.690383,3.36561404 32.6229787,3.23824561 C32.5555745,3.11087719 32.5218723,2.99122807 32.5218723,2.87929825 C32.5218723,2.66701754 32.596766,2.49333333 32.7465532,2.35052632 C32.8963404,2.2077193 33.0685957,2.13824561 33.2595745,2.13824561 C33.4018723,2.13824561 33.5741277,2.18070175 33.7875745,2.26947368 C34.0010213,2.35824561 34.2668936,2.48175439 34.5889362,2.6477193 C34.9109787,2.81368421 35.2854468,2.99894737 35.6973617,3.20350877 C35.6224681,2.82526316 35.5588085,2.38912281 35.5101277,1.89508772 C35.4614468,1.40105263 35.435234,1.06912281 35.435234,0.887719298 C35.435234,0.663859649 35.5026383,0.474736842 35.6411915,0.312631579 C35.7797447,0.150526316 35.9557447,0.0733333333 36.1729362,0.0733333333 C36.3826383,0.0733333333 36.5586383,0.154385965 36.6934468,0.312631579 C36.8282553,0.470877193 36.8994043,0.683157895 36.8994043,0.949473684 C36.8994043,1.02280702 36.8881702,1.16561404 36.8694468,1.37789474 C36.8507234,1.59017544 36.820766,1.85263158 36.7833191,2.15754386 C36.7458723,2.46245614 36.6934468,2.81368421 36.6485106,3.20736842 Z"/>
                </g>
            </g>
        </g>
        <g id="el_4HWJZ-EMrgH" filter="url(#filter-7)">
            <path id="el_z6pImzSoRpq" d="M47.3945661,22.7008843 L47.8124582,49.0077697 L6.34833391,49.0077697 C2.8422459,49.0077697 4.29371945e-16,46.1655237 0,42.6594357 L-4.4408921e-16,3.95989806 C-6.58775182e-16,2.20685406 1.42112295,0.785731106 3.17416695,0.785731106 C3.67053576,0.785731106 4.1599867,0.902141157 4.60320589,1.12561092 L47.3945661,22.7008843 Z"/>
            <path id="el_297t6letwyQ" d="M95.2070243,22.7008843 L95.6249164,49.0077697 L54.1607921,49.0077697 C50.6547041,49.0077697 47.8124582,46.1655237 47.8124582,42.6594357 L47.8124582,3.95989806 C47.8124582,2.20685406 49.2335811,0.785731106 50.9866252,0.785731106 C51.482994,0.785731106 51.9724449,0.902141157 52.4156641,1.12561092 L95.2070243,22.7008843 Z"/>
            <path id="el_rP-Hs63mNMg" d="M92.038982,47.8124582 L3.58593436,47.8124582 L44.026184,23.7457377 C46.3446487,22.3659776 49.2802677,22.3659776 51.5987324,23.7457377 L92.038982,47.8124582 Z"/>
        </g>
    </g>
</svg>
