<?xml version="1.0" encoding="UTF-8"?>
<svg width="22px" height="22px" viewBox="0 0 22 22" version="1.1" xmlns="http://www.w3.org/2000/svg" xmlns:xlink="http://www.w3.org/1999/xlink">
    <g id="FUJICONS" stroke="none" stroke-width="1" fill="none" fill-rule="evenodd">
        <g id="compose" transform="translate(-1.000000, -1.000000)" fill="#999ca5">
            <path d="M22.7158,8.6191 L15.3648,1.2651 C14.9748,0.8751 14.3408,0.8751 13.9508,1.2651 L1.2928,13.9311 C1.1048,14.1181 0.9998,14.3731 0.9998,14.6381 L0.9998,22.0001 C0.9998,22.5521 1.4478,23.0001 1.9998,23.0001 L9.3528,23.0001 C9.6208,23.0001 9.8778,22.8941 10.0658,22.7051 L22.7158,10.0471 C23.1188,9.6431 23.0888,8.9931 22.7158,8.6191 L22.7158,8.6191 Z M8.9358,20.9821 L5.8988,20.9821 L3.0168,18.1001 L3.0168,15.0591 L10.7118,7.3591 L16.6298,13.2821 L8.9358,20.9821 Z M18.0558,11.8541 L12.1378,5.9331 L14.6578,3.4111 L20.5768,9.3331 L18.0558,11.8541 Z" id="Fill-1"></path>
        </g>
    </g>
</svg>