<?xml version="1.0" encoding="UTF-8"?>
<svg width="48px" height="48px" viewBox="0 0 48 48" version="1.1" xmlns="http://www.w3.org/2000/svg" xmlns:xlink="http://www.w3.org/1999/xlink">
    <!-- Generator: Sketch 57.1 (83088) - https://sketch.com -->
    <title>account secure green darkmode</title>
    <desc>Created with Sketch.</desc>
    <g id="account-secure-green-darkmode" stroke="none" stroke-width="1" fill="none" fill-rule="evenodd">
        <g id="Group" transform="translate(4.000000, 2.000000)">
            <circle id="Oval-Copy" fill="#F0F3F5" cx="31" cy="33" r="6"></circle>
            <g id="caution-1.0.0" fill="#999CA5" fill-rule="nonzero">
                <path d="M18.0961402,0 C18.5227825,0 18.947617,0.152581627 19.2856767,0.459561328 C25.4792208,6.05603742 31.4992155,7.25307661 34.5381378,7.46560102 C35.4980829,7.53462604 36.1922805,8.35566051 36.1904762,9.32382726 C36.1904762,14.4616361 35.3993314,18.8052028 34.1495441,22.4593818 C33.1520653,22.1599113 32.0947073,22 31,22 C30.8314149,22 30.6637156,22.0037925 30.4969827,22.0112967 C31.6367347,18.8689712 32.3974852,15.1797249 32.5477431,10.8986876 C29.03156,10.3828164 23.6515287,8.80432315 18.0961402,4.21960856 C12.5407517,8.8025067 7.16433604,10.381 3.64453733,10.8986876 C4.06575618,22.3986195 9.1583463,32.5053358 18.1142183,36.2290541 C18.7790234,35.9587479 19.4857499,35.6082992 20.2155423,35.1740072 C20.4542859,36.3686609 20.8872997,37.4933724 21.4797495,38.5140569 C20.2416173,39.2518462 19.2579548,39.6897558 18.7216412,39.8891967 C18.5227825,39.9618546 18.313077,40 18.1051793,40 C17.8900503,40 17.6731136,39.9600381 17.4688315,39.8819309 C14.6992724,38.8174924 2.87769808e-13,31.382771 2.87769808e-13,9.3256437 C2.87769808e-13,8.35747695 0.692389781,7.53462604 1.65414269,7.46560102 C4.69306494,7.25307661 10.7130596,6.05603742 16.9047959,0.459561328 C17.2428557,0.152581627 17.669498,0 18.0961402,0 Z M23.9590366,14.1846419 C24.6875825,13.4616957 25.8626565,13.4616957 26.5875868,14.1846419 C27.3161327,14.9094047 27.3161327,16.0810136 26.5875868,16.8039599 L26.5875868,16.8039599 L17.4653966,25.8171745 C16.7368507,26.5473866 15.6214343,26.5274057 14.8368464,25.8171745 L14.8368464,25.8171745 L9.6014396,20.6293992 C8.8747015,19.9082694 8.8747015,18.734844 9.6014396,18.0082648 C10.3263699,17.287135 11.5032517,17.287135 12.2299898,18.0082648 L12.2299898,18.0082648 L16.1529293,21.8881976 Z" id="Combined-Shape"></path>
            </g>
            <g id="Group-2" transform="translate(22.000000, 24.000000)">
                <circle id="Oval" fill="#FFFFFF" cx="9" cy="9" r="9"></circle>
                <g id="Combined-Shape-2" fill="#00D15E">
                    <path d="M9,0 C13.9704545,0 18,4.02954545 18,9 C18,13.9704545 13.9704545,18 9,18 C4.02954545,18 0,13.9704545 0,9 C0,4.02954545 4.02954545,0 9,0 Z M12.4371818,5.97681818 L7.37590909,11.0266364 L5.55709091,9.21354545 C5.22245455,8.87890909 4.68,8.87890909 4.34536364,9.21354545 C4.01072727,9.54736364 4.01072727,10.0881818 4.34536364,10.422 L6.76963636,12.8405455 C7.10427273,13.1743636 7.64754545,13.1743636 7.98218182,12.8405455 L13.6489091,7.18609091 C13.9835455,6.85227273 13.9835455,6.31063636 13.6489091,5.97681818 C13.3142727,5.643 12.771,5.643 12.4371818,5.97681818 Z" id="Combined-Shape"></path>
                </g>
            </g>
        </g>
    </g>
</svg>