<svg width="18" height="20" viewBox="0 0 18 20" fill="none" xmlns="http://www.w3.org/2000/svg">
<path fill-rule="evenodd" clip-rule="evenodd" d="M9.00038 0.833496C9.19686 0.833496 9.3925 0.903429 9.54819 1.04413C12.4005 3.60918 15.1728 4.15782 16.5723 4.25523C17.0144 4.28687 17.3341 4.66317 17.3333 5.10692C17.3333 15.2572 10.5639 18.644 9.28844 19.116C9.19686 19.1493 9.10028 19.1668 9.00454 19.1668C8.90547 19.1668 8.80556 19.1485 8.71148 19.1127C7.43603 18.6248 0.666626 15.2173 0.666626 5.10858C0.666626 4.66401 0.98549 4.28687 1.4284 4.25523C2.82791 4.15782 5.60027 3.60918 8.45173 1.04413C8.60742 0.903429 8.8039 0.833496 9.00038 0.833496ZM7.4993 12.6664C7.86062 12.9927 8.3743 13.001 8.71065 12.6664L12.9108 8.53531C13.2463 8.20396 13.2463 7.66697 12.9108 7.33479C12.577 7.00344 12.0358 7.00344 11.7003 7.33479L8.10539 10.8656L6.29877 9.08728C5.96409 8.75677 5.42211 8.75677 5.08826 9.08728C4.75358 9.4203 4.75358 9.95812 5.08826 10.2886L7.4993 12.6664Z" fill="#008751"/>
</svg>
