<svg width="40" height="40" viewBox="0 0 40 40" fill="none" xmlns="http://www.w3.org/2000/svg">
    <g clip-path="url(#clip0_6912_152374)">
        <mask id="mask0_6912_152374" style="mask-type:luminance" maskUnits="userSpaceOnUse" x="0" y="0" width="40" height="40">
            <path d="M40 0H0V40H40V0Z" fill="white"/>
        </mask>
        <g mask="url(#mask0_6912_152374)">
            <path d="M20 39.5C30.7696 39.5 39.5 30.7696 39.5 20C39.5 9.23045 30.7696 0.5 20 0.5C9.23045 0.5 0.5 9.23045 0.5 20C0.5 30.7696 9.23045 39.5 20 39.5Z" fill="black" stroke="#1D2228"/>
            <path d="M17.859 21.8682H22.3558C26.0669 21.8682 28.9289 24.5403 28.999 27.6837C28.5762 27.845 27.8046 28.0836 26.7021 28.3249C24.7784 28.7458 22.5689 29.0002 20.1074 29.0002C17.6458 29.0002 15.4363 28.7458 13.5126 28.3249C12.5582 28.116 11.8477 27.9082 11.396 27.7495L11.2158 27.682C11.2868 24.5394 14.1484 21.8682 17.859 21.8682Z" stroke="#888A8D" stroke-width="2"/>
            <path d="M15.7803 13.7255C15.7803 11.5443 17.6695 9.69238 20.1073 9.69238C22.545 9.69238 24.4342 11.5443 24.4342 13.7255C24.4342 16.1095 22.3603 18.3464 20.1073 18.3464C17.8542 18.3464 15.7803 16.1095 15.7803 13.7255Z" stroke="#888A8D" stroke-width="2"/>
        </g>
    </g>
    <defs>
        <clipPath id="clip0_6912_152374">
            <rect width="40" height="40" fill="white"/>
        </clipPath>
    </defs>
</svg>
