<?xml version="1.0" encoding="UTF-8"?>
<svg width="48px" height="48px" viewBox="0 0 48 48" version="1.1" xmlns="http://www.w3.org/2000/svg" xmlns:xlink="http://www.w3.org/1999/xlink">
    <!-- Generator: Sketch 57.1 (83088) - https://sketch.com -->
    <title>let us help you dark theme</title>
    <desc>Created with Sketch.</desc>
    <g id="let-us-help-you-dark-theme" stroke="none" stroke-width="1" fill="none" fill-rule="evenodd">
        <g id="Master_icon_grid-working-file--copy-91-Copy-Copy" transform="translate(6.000000, 2.000000)" fill="#F0F3F5" fill-rule="nonzero">
            <path d="M18.07,0 C18.07,0 0.07,5.1 0.07,6 L0.07,24.2 C0.07,33.4 13.37,41.5 17.07,43.7 C17.6769295,44.099123 18.4630705,44.099123 19.07,43.7 C22.87,41.6 36.07,33.4 36.07,24.2 L36.07,6 C36.07,5.1 18.07,0 18.07,0 Z" id="Shape"></path>
        </g>
        <g id="Master_icon_grid-working-file--copy-92" transform="translate(10.000000, 7.000000)" fill="#5D5EFF" fill-rule="nonzero">
            <path d="M14.257027,0 C14.257027,0 0.148918919,3.94090909 0.148918919,4.63636364 L0.148918919,18.7 C0.148918919,25.8090909 10.5732432,32.0681818 13.4732432,33.7681818 C13.9489447,34.076595 14.5651093,34.076595 15.0408108,33.7681818 C18.0191892,32.1454545 28.3651351,25.8090909 28.3651351,18.7 L28.3651351,4.63636364 C28.3651351,3.94090909 14.257027,0 14.257027,0 Z" id="Shape"></path>
        </g>
        <g id="Master_icon_grid-working-file--copy_custome-care" transform="translate(15.500000, 14.500000)" fill="#F0F3F5" fill-rule="nonzero">
            <path d="M9.35142857,10.1828571 L9.35142857,10.4485714 C9.35142857,10.8793535 9.00221068,11.2285714 8.57142857,11.2285714 C8.14064647,11.2285714 7.79142857,10.8793535 7.79142857,10.4485714 L7.79142857,9.52285714 C7.79368927,9.31825755 7.87714075,9.12293735 8.02342189,8.97987118 C8.16970304,8.83680501 8.36682926,8.75771404 8.57142857,8.76 C9.40933552,8.74116585 10.0751739,8.04996675 10.0626878,7.21194117 C10.0502016,6.37391558 9.36406634,5.70286019 8.52597021,5.70899762 C7.68787409,5.71513505 7.01164022,6.39616715 7.01142857,7.23428571 C6.96964151,7.63126429 6.63488611,7.93263189 6.23571429,7.93263189 C5.83654246,7.93263189 5.50178706,7.63126429 5.46,7.23428571 C5.4211219,5.60283389 6.6460408,4.21703698 8.26992268,4.05531431 C9.89380455,3.89359164 11.3679768,5.0105856 11.6516242,6.61766082 C11.9352715,8.22473603 10.932556,9.7788985 9.35142857,10.1828571 M8.57142857,13.5428571 C8.25594802,13.5428571 7.97153172,13.3528162 7.85080254,13.0613502 C7.73007336,12.7698842 7.79680685,12.4343923 8.01988528,12.2113139 C8.24296372,11.9882354 8.57845562,11.9215019 8.86992165,12.0422311 C9.16138767,12.1629603 9.35142857,12.4473766 9.35142857,12.7628571 C9.35142857,13.1936392 9.00221068,13.5428571 8.57142857,13.5428571 M8.57142857,0.3 C3.83755929,0.3 0,4.13755929 0,8.87142857 C0,13.6052979 3.83755929,17.4428571 8.57142857,17.4428571 C13.3052979,17.4428571 17.1428571,13.6052979 17.1428571,8.87142857 C17.1428571,4.13755929 13.3052979,0.3 8.57142857,0.3" id="Fill-22"></path>
        </g>
    </g>
</svg>