<?xml version="1.0" encoding="UTF-8"?>
<svg width="160px" height="104px" viewBox="0 0 160 104" version="1.1" xmlns="http://www.w3.org/2000/svg" xmlns:xlink="http://www.w3.org/1999/xlink">
    <defs>
        <rect id="path-1" x="4.8" y="9.61264822" width="86.4" height="55.2727273" rx="3.6"></rect>
        <filter x="-7.5%" y="-10.0%" width="115.0%" height="123.5%" filterUnits="objectBoundingBox" id="filter-2">
            <feOffset dx="0" dy="1" in="SourceAlpha" result="shadowOffsetOuter1"></feOffset>
            <feGaussianBlur stdDeviation="2" in="shadowOffsetOuter1" result="shadowBlurOuter1"></feGaussianBlur>
            <feColorMatrix values="0 0 0 0 0.878431373   0 0 0 0 0.894117647   0 0 0 0 0.91372549  0 0 0 1 0" type="matrix" in="shadowBlurOuter1"></feColorMatrix>
        </filter>
        <linearGradient x1="50%" y1="90.7019413%" x2="50%" y2="0%" id="linearGradient-3">
            <stop stop-color="#808080" offset="0%"></stop>
            <stop stop-color="#808080" offset="100%"></stop>
        </linearGradient>
        <path d="M15.5555556,12.4444444 L15.5555556,1.55555556 C15.5555556,0.696888889 14.8586667,0 14,0 C13.1405556,0 12.4444444,0.696888889 12.4444444,1.55555556 L12.4444444,12.4444444 L1.55555556,12.4444444 C0.696888889,12.4444444 0,13.1413333 0,14 C0,14.8594444 0.696888889,15.5555556 1.55555556,15.5555556 L12.4444444,15.5555556 L12.4444444,26.4444444 C12.4444444,27.3038889 13.1405556,28 14,28 C14.8586667,28 15.5555556,27.3038889 15.5555556,26.4444444 L15.5555556,15.5555556 L26.4444444,15.5555556 C27.3031111,15.5555556 28,14.8594444 28,14 C28,13.1413333 27.3031111,12.4444444 26.4444444,12.4444444 L15.5555556,12.4444444 Z" id="path-4"></path>
        <filter x="-51.8%" y="-41.1%" width="203.6%" height="203.6%" filterUnits="objectBoundingBox" id="filter-5">
            <feMorphology radius="4" operator="dilate" in="SourceAlpha" result="shadowSpreadOuter1"></feMorphology>
            <feOffset dx="0" dy="3" in="shadowSpreadOuter1" result="shadowOffsetOuter1"></feOffset>
            <feGaussianBlur stdDeviation="3" in="shadowOffsetOuter1" result="shadowBlurOuter1"></feGaussianBlur>
            <feComposite in="shadowBlurOuter1" in2="SourceAlpha" operator="out" result="shadowBlurOuter1"></feComposite>
            <feColorMatrix values="0 0 0 0 0   0 0 0 0 0   0 0 0 0 0  0 0 0 0.15 0" type="matrix" in="shadowBlurOuter1"></feColorMatrix>
        </filter>
        <linearGradient x1="0%" y1="100%" x2="100%" y2="0%" id="linearGradient-6">
            <stop stop-color="#7282FB" offset="0%"></stop>
            <stop stop-color="#755BF9" offset="68.7141263%"></stop>
            <stop stop-color="#7934F7" offset="100%"></stop>
        </linearGradient>
    </defs>
    <g id="Add-email" stroke="none" stroke-width="1" fill="none" fill-rule="evenodd">
        <rect fill="transparent" x="0" y="0" width="160" height="104"></rect>
        <g id="Group-Copy" transform="translate(32.000000, 19.000000)">
            <g id="envelope-back" transform="translate(0.000000, 0.379447)">
                <rect fill="#808080" x="0" y="0" width="96" height="37.2490119" rx="7.2"></rect>
                <g id="envelope-inside">
                    <use fill="white" fill-opacity="1" filter="url(#filter-2)" xlink:href="#path-1"></use>
                    <use fill="black" fill-rule="evenodd" xlink:href="#path-1"></use>
                </g>
            </g>
            <g id="envelope-front" transform="translate(0.000000, 22.735178)">
                <path d="M95.5804687,21.7717634 L96,48.2166319 L55.2,48.2166319 C51.2235498,48.2166319 48,44.9930821 48,41.0166319 L48,3.60050844 C48,1.61228334 49.6117749,0.000508439763 51.6,0.000508439763 C52.1636037,0.000508439763 52.7193343,0.132837783 53.2224547,0.386843769 L95.5804687,21.7717634 Z" id="Triangle-2-Copy" fill="#808080" transform="translate(72.000000, 24.108316) scale(-1, 1) translate(-72.000000, -24.108316) "></path>
                <path d="M47.5804687,21.7717634 L48,48.2166319 L7.2,48.2166319 C3.2235498,48.2166319 4.03968838e-15,44.9930821 3.55271368e-15,41.0166319 L-8.8817842e-16,3.60050844 C-1.13166577e-15,1.61228334 1.6117749,0.000508439763 3.6,0.000508439763 C4.16360373,0.000508439763 4.71933435,0.132837783 5.22245474,0.386843769 L47.5804687,21.7717634 Z" id="Triangle-2-Copy-2" fill="#808080"></path>
                <path d="M92.4,47.3359684 L3.6,47.3359684 L44.1988743,23.1430147 C46.5264331,21.7560175 49.4735669,21.7560175 51.8011257,23.1430147 L92.4,47.3359684 Z" id="Triangle" fill="url(#linearGradient-3)"></path>
            </g>
        </g>
        <path d="M136.368309,88.2881479 C140.984061,92.9741444 142.539812,92.9818098 147.254097,88.3364333 C142.539812,92.9818098 142.52413,94.5394302 147.138104,99.2200459 C142.52413,94.5394302 140.965697,94.5281823 136.254097,99.1762435 C140.9657,94.5272846 140.984061,92.9741444 136.368309,88.2881479 Z" id="Path-Copy-15" fill="#707070" transform="translate(141.754097, 93.754097) rotate(-315.000000) translate(-141.754097, -93.754097) "></path>
        <path d="M147.641502,46.8401493 L144.342002,48.0942876 L144.342002,49.766472 C144.343224,51.8909245 145.665178,53.784004 147.641502,54.4914591 C149.617826,53.784004 150.93978,51.8909245 150.941002,49.766472 L150.941002,48.0942876 L147.641502,46.8401493 Z" id="Path-Copy-5" stroke="#707070" stroke-width="1.34146341"></path>
        <path d="M139.5,4 L137,4.95024875 L137,6.21724709 C137.000926,7.82692462 138.002558,9.26129309 139.5,9.7973251 C140.997442,9.26129309 141.999074,7.82692462 142,6.21724709 L142,4.95024875 L139.5,4 Z" id="Path-Copy-7" stroke="#DFE2E8" stroke-width="1.34146341"></path>
        <path d="M20,22 L17,23.1402985 L17,24.6606965 C17.0011112,26.5923095 18.2030697,28.3135517 20,28.9567901 C21.7969303,28.3135517 22.9988888,26.5923095 23,24.6606965 L23,23.1402985 L20,22 Z" id="Path-Copy-8" stroke="#DFE2E8" stroke-width="1.34146341"></path>
        <path d="M146.406432,74.3074841 L147.260851,74.3074841 C148.003811,74.3074841 148.606099,74.905176 148.606099,75.4005284 L148.606099,74.3074841 C148.606099,74.9111558 147.99658,75.4005284 147.260851,75.4005284 L146.406432,75.4005284 L146.406432,77.0426101 C146.406432,77.3430568 146.151344,77.5866169 145.856515,77.5866169 C145.552805,77.5866169 145.306599,77.3375862 145.306599,77.0426101 L145.306599,75.4005284 L144.452179,75.4005284 C143.70922,75.4005284 143.106932,74.8028365 143.106932,74.3074841 L143.106932,75.4005284 C143.106932,74.7968567 143.71645,74.3074841 144.452179,74.3074841 L145.306599,74.3074841 L145.306599,72.6654024 C145.306599,72.3649557 145.561687,72.1213956 145.856515,72.1213956 C146.160226,72.1213956 146.406432,72.3704263 146.406432,72.6654024 L146.406432,74.3074841 Z" id="Combined-Shape-Copy-6" fill="#707070" transform="translate(145.856515, 74.854006) rotate(39.000000) translate(-145.856515, -74.854006) "></path>
        <path d="M149.357886,29.9050548 L149.857721,29.9050548 C150.68624,29.9050548 151.357886,30.5733829 151.357886,31.127277 L151.357886,29.9050548 C151.357886,30.5800695 150.683564,31.127277 149.857721,31.127277 L149.357886,31.127277 L149.357886,32.5184671 C149.357886,32.7933385 149.125953,33.0161659 148.857886,33.0161659 C148.581744,33.0161659 148.357886,32.8013221 148.357886,32.5184671 L148.357886,31.127277 L147.858051,31.127277 C147.029533,31.127277 146.357886,30.4589488 146.357886,29.9050548 L146.357886,31.127277 C146.357886,30.4522623 147.032208,29.9050548 147.858051,29.9050548 L148.357886,29.9050548 L148.357886,28.5138647 C148.357886,28.2389932 148.58982,28.0161659 148.857886,28.0161659 C149.134029,28.0161659 149.357886,28.2310096 149.357886,28.5138647 L149.357886,29.9050548 Z" id="Combined-Shape-Copy-7" fill="#707070" transform="translate(148.857886, 30.516166) rotate(39.000000) translate(-148.857886, -30.516166) "></path>
        <circle id="Oval-2-Copy-2" stroke="#808080" stroke-width="1.34146341" transform="translate(153.952362, 66.499290) scale(-1, 1) rotate(-37.000000) translate(-153.952362, -66.499290) " cx="153.952362" cy="66.4992902" r="2.01219512"></circle>
        <circle id="Oval-2-Copy-3" stroke="#808080" stroke-width="1.34146341" transform="translate(10.391387, 47.352949) scale(-1, 1) rotate(-37.000000) translate(-10.391387, -47.352949) " cx="10.3913867" cy="47.3529488" r="2.01219512"></circle>
        <circle id="Oval-2-Copy-4" stroke="#808080" stroke-width="1.34146341" transform="translate(137.806021, 26.255388) scale(-1, 1) rotate(-37.000000) translate(-137.806021, -26.255388) " cx="137.806021" cy="26.2553878" r="2.01219512"></circle>
        <path d="M23.5127336,89.1328322 L20.2932214,90.331593 L20.2932214,91.9299407 C20.2944139,93.9605862 21.5843206,95.7700752 23.5127336,96.446292 C25.4411465,95.7700752 26.7310533,93.9605862 26.7322458,91.9299407 L26.7322458,90.331593 L23.5127336,89.1328322 Z" id="Path-Copy-4" stroke="#707070" stroke-width="1.34146341"></path>
        <path d="M4.62300671,84.8590146 C7.79763594,88.0748369 8.86765317,88.0800973 12.1100517,84.8921511 C8.86765317,88.0800973 8.85686764,89.1490334 12.0302736,92.3611629 C8.85686764,89.1490334 7.78500584,89.1413144 4.54445381,92.331103 C7.78500778,89.1406983 7.79763594,88.0748369 4.62300671,84.8590146 Z" id="Path-Copy-14" fill="#707070" transform="translate(8.327253, 88.610089) rotate(-315.000000) translate(-8.327253, -88.610089) "></path>
        <path d="M21.6653161,56.0173173 L22.2447769,56.0173173 C22.9877366,56.0173173 23.5900245,56.6092384 23.5900245,57.356162 L23.5900245,56.3180391 C23.5900245,57.0574625 22.9805062,57.6568837 22.2447769,57.6568837 L21.6653161,57.6568837 L21.6653161,58.7396617 C21.6653161,59.1980853 21.2991831,59.5697112 20.8404411,59.5697112 C20.3848752,59.5697112 20.0155661,59.1940644 20.0155661,58.7396617 L20.0155661,57.6568837 L19.4361052,57.6568837 C18.6931455,57.6568837 18.0908577,57.0649626 18.0908577,56.3180391 L18.0908577,57.356162 C18.0908577,56.6167385 18.700376,56.0173173 19.4361052,56.0173173 L20.0155661,56.0173173 L20.0155661,54.9345393 C20.0155661,54.4761157 20.3816991,54.1044898 20.8404411,54.1044898 C21.296007,54.1044898 21.6653161,54.4801366 21.6653161,54.9345393 L21.6653161,56.0173173 Z" id="Combined-Shape" fill="#707070" transform="translate(20.840441, 56.837101) scale(-1, 1) rotate(-37.000000) translate(-20.840441, -56.837101) "></path>
        <path d="M29.2756107,8.24771047 L29.8550715,8.24771047 C30.5980312,8.24771047 31.2003191,8.83963156 31.2003191,9.58655512 L31.2003191,8.54843222 C31.2003191,9.2878557 30.5908008,9.88727686 29.8550715,9.88727686 L29.2756107,9.88727686 L29.2756107,10.9700548 C29.2756107,11.4284785 28.9094777,11.8001043 28.4507357,11.8001043 C27.9951698,11.8001043 27.6258606,11.4244575 27.6258606,10.9700548 L27.6258606,9.88727686 L27.0463998,9.88727686 C26.3034401,9.88727686 25.7011523,9.29535577 25.7011523,8.54843222 L25.7011523,9.58655512 C25.7011523,8.84713164 26.3106705,8.24771047 27.0463998,8.24771047 L27.6258606,8.24771047 L27.6258606,7.16493249 C27.6258606,6.70650882 27.9919936,6.33488301 28.4507357,6.33488301 C28.9063015,6.33488301 29.2756107,6.7105298 29.2756107,7.16493249 L29.2756107,8.24771047 Z" id="Combined-Shape-Copy" fill="#707070" transform="translate(28.450736, 9.067494) scale(-1, 1) rotate(-37.000000) translate(-28.450736, -9.067494) "></path>
        <g id="Group" transform="translate(110.000000, 52.000000)">
            <g id="+-shadow">
                <use fill="black" fill-opacity="1" filter="url(#filter-5)" xlink:href="#path-4"></use>
                <path stroke="#FFFFFF" stroke-width="4" d="M14.4444444,13.5555556 L13.5555556,13.5555556 L13.5555556,14.4444444 L14.4444444,14.4444444 L14.4444444,13.5555556 Z M17.5555556,10.4444444 L26.4444444,10.4444444 C28.4076806,10.4444444 30,12.0367638 30,14 C30,15.9639 28.4077947,17.5555556 26.4444444,17.5555556 L17.5555556,17.5555556 L17.5555556,26.4444444 C17.5555556,28.4083445 15.9633502,30 14,30 C12.0359861,30 10.4444444,28.4084584 10.4444444,26.4444444 L10.4444444,17.5555556 L1.55555556,17.5555556 C-0.407794678,17.5555556 -2,15.9639 -2,14 C-2,12.0367638 -0.407680611,10.4444444 1.55555556,10.4444444 L10.4444444,10.4444444 L10.4444444,1.55555556 C10.4444444,-0.407794678 12.0361,-2 14,-2 C15.9632362,-2 17.5555556,-0.407680611 17.5555556,1.55555556 L17.5555556,10.4444444 Z" fill="#FFFFFF" fill-rule="evenodd"></path>
            </g>
            <path d="M15.5555556,12.4444444 L15.5555556,1.55555556 C15.5555556,0.696888889 14.8586667,0 14,0 C13.1405556,0 12.4444444,0.696888889 12.4444444,1.55555556 L12.4444444,12.4444444 L1.55555556,12.4444444 C0.696888889,12.4444444 0,13.1413333 0,14 C0,14.8594444 0.696888889,15.5555556 1.55555556,15.5555556 L12.4444444,15.5555556 L12.4444444,26.4444444 C12.4444444,27.3038889 13.1405556,28 14,28 C14.8586667,28 15.5555556,27.3038889 15.5555556,26.4444444 L15.5555556,15.5555556 L26.4444444,15.5555556 C27.3031111,15.5555556 28,14.8594444 28,14 C28,13.1413333 27.3031111,12.4444444 26.4444444,12.4444444 L15.5555556,12.4444444 Z" id="New-Copy-5" fill="url(#linearGradient-6)"></path>
        </g>
    </g>
</svg>